M48
;DRILL file {KiCad 5.0.0-rc2-dev-unknown-r12507-fb882633} date Tue Mar 27 10:23:15 2018
;FORMAT={-:-/ absolute / metric / decimal}
FMAT,2
METRIC,TZ
T1C0.400
T2C0.700
T3C0.800
T4C1.000
T5C1.020
T6C1.100
T7C3.200
%
G90
G05
M71
T1
X105.Y-51.5
X106.5Y-51.
X112.25Y-44.5
X113.25Y-42.25
X113.5Y-46.25
X123.25Y-39.75
X126.Y-47.5
X130.Y-37.5
X133.5Y-46.25
X134.Y-36.5
X136.Y-55.
X141.5Y-46.5
X142.25Y-43.5
X146.Y-59.5
T2
X129.Y-67.92
X129.Y-73.
X157.25Y-65.75
X162.33Y-65.75
X80.5Y-65.
X85.58Y-65.
X119.5Y-38.42
X119.5Y-43.5
X153.Y-54.75
X153.Y-59.83
X101.Y-39.
X103.5Y-39.
X171.5Y-65.75
X176.58Y-65.75
X91.5Y-53.75
X96.58Y-53.75
X146.5Y-38.
X146.5Y-40.5
X103.25Y-65.
X108.33Y-65.
X91.5Y-76.5
X96.58Y-76.5
X115.5Y-39.67
X115.5Y-44.75
X166.5Y-45.5
X166.5Y-50.58
X144.25Y-67.92
X144.25Y-73.
T3
X159.25Y-37.5
X161.75Y-37.5
X148.75Y-48.
X151.25Y-48.
T4
X123.38Y-27.
X125.92Y-27.
X128.46Y-27.
X131.Y-27.
X133.54Y-27.
X136.08Y-27.
X138.62Y-27.
X114.Y-48.96
X114.Y-51.5
X101.75Y-29.
X104.29Y-29.
X106.83Y-29.
X109.37Y-29.
X111.91Y-29.
X114.45Y-29.
X176.75Y-36.75
X176.75Y-39.29
T5
X166.25Y-37.5
X168.79Y-37.5
X171.33Y-37.5
T6
X170.75Y-56.5
X170.75Y-61.
X177.25Y-56.5
X177.25Y-61.
X90.75Y-67.25
X90.75Y-71.75
X97.25Y-67.25
X97.25Y-71.75
X79.5Y-56.25
X79.5Y-60.75
X86.Y-56.25
X86.Y-60.75
X170.75Y-45.5
X170.75Y-50.
X177.25Y-45.5
X177.25Y-50.
X119.Y-68.25
X119.Y-72.75
X125.5Y-68.25
X125.5Y-72.75
X102.5Y-56.25
X102.5Y-60.75
X109.Y-56.25
X109.Y-60.75
X156.5Y-56.5
X156.5Y-61.
X163.Y-56.5
X163.Y-61.
X90.75Y-45.25
X90.75Y-49.75
X97.25Y-45.25
X97.25Y-49.75
X156.25Y-45.5
X156.25Y-50.
X162.75Y-45.5
X162.75Y-50.
X134.5Y-68.25
X134.5Y-72.75
X141.Y-68.25
X141.Y-72.75
T7
X119.35Y-27.65
X119.35Y-54.35
X142.65Y-27.65
X142.65Y-54.35
T0
M30
