G04 #@! TF.GenerationSoftware,KiCad,Pcbnew,5.0.0-rc2-dev-unknown-r12507-fb882633*
G04 #@! TF.CreationDate,2018-03-27T10:23:12-04:00*
G04 #@! TF.ProjectId,Gamegame,47616D6567616D652E6B696361645F70,rev?*
G04 #@! TF.SameCoordinates,Original*
G04 #@! TF.FileFunction,Legend,Top*
G04 #@! TF.FilePolarity,Positive*
%FSLAX46Y46*%
G04 Gerber Fmt 4.6, Leading zero omitted, Abs format (unit mm)*
G04 Created by KiCad (PCBNEW 5.0.0-rc2-dev-unknown-r12507-fb882633) date Tue Mar 27 10:23:12 2018*
%MOMM*%
%LPD*%
G01*
G04 APERTURE LIST*
%ADD10C,0.750000*%
%ADD11C,0.300000*%
%ADD12C,0.600000*%
%ADD13C,0.120000*%
%ADD14C,0.150000*%
%ADD15C,0.010000*%
G04 APERTURE END LIST*
D10*
X146500000Y-75857142D02*
X146500000Y-78285714D01*
X146357142Y-78571428D01*
X146214285Y-78714285D01*
X145928571Y-78857142D01*
X145500000Y-78857142D01*
X145214285Y-78714285D01*
X146500000Y-77714285D02*
X146214285Y-77857142D01*
X145642857Y-77857142D01*
X145357142Y-77714285D01*
X145214285Y-77571428D01*
X145071428Y-77285714D01*
X145071428Y-76428571D01*
X145214285Y-76142857D01*
X145357142Y-76000000D01*
X145642857Y-75857142D01*
X146214285Y-75857142D01*
X146500000Y-76000000D01*
X149214285Y-77857142D02*
X149214285Y-76285714D01*
X149071428Y-76000000D01*
X148785714Y-75857142D01*
X148214285Y-75857142D01*
X147928571Y-76000000D01*
X149214285Y-77714285D02*
X148928571Y-77857142D01*
X148214285Y-77857142D01*
X147928571Y-77714285D01*
X147785714Y-77428571D01*
X147785714Y-77142857D01*
X147928571Y-76857142D01*
X148214285Y-76714285D01*
X148928571Y-76714285D01*
X149214285Y-76571428D01*
X150642857Y-77857142D02*
X150642857Y-75857142D01*
X150642857Y-76142857D02*
X150785714Y-76000000D01*
X151071428Y-75857142D01*
X151500000Y-75857142D01*
X151785714Y-76000000D01*
X151928571Y-76285714D01*
X151928571Y-77857142D01*
X151928571Y-76285714D02*
X152071428Y-76000000D01*
X152357142Y-75857142D01*
X152785714Y-75857142D01*
X153071428Y-76000000D01*
X153214285Y-76285714D01*
X153214285Y-77857142D01*
X155785714Y-77714285D02*
X155500000Y-77857142D01*
X154928571Y-77857142D01*
X154642857Y-77714285D01*
X154500000Y-77428571D01*
X154500000Y-76285714D01*
X154642857Y-76000000D01*
X154928571Y-75857142D01*
X155500000Y-75857142D01*
X155785714Y-76000000D01*
X155928571Y-76285714D01*
X155928571Y-76571428D01*
X154500000Y-76857142D01*
X158785714Y-75000000D02*
X158500000Y-74857142D01*
X158071428Y-74857142D01*
X157642857Y-75000000D01*
X157357142Y-75285714D01*
X157214285Y-75571428D01*
X157071428Y-76142857D01*
X157071428Y-76571428D01*
X157214285Y-77142857D01*
X157357142Y-77428571D01*
X157642857Y-77714285D01*
X158071428Y-77857142D01*
X158357142Y-77857142D01*
X158785714Y-77714285D01*
X158928571Y-77571428D01*
X158928571Y-76571428D01*
X158357142Y-76571428D01*
X161500000Y-77857142D02*
X161500000Y-76285714D01*
X161357142Y-76000000D01*
X161071428Y-75857142D01*
X160500000Y-75857142D01*
X160214285Y-76000000D01*
X161500000Y-77714285D02*
X161214285Y-77857142D01*
X160500000Y-77857142D01*
X160214285Y-77714285D01*
X160071428Y-77428571D01*
X160071428Y-77142857D01*
X160214285Y-76857142D01*
X160500000Y-76714285D01*
X161214285Y-76714285D01*
X161500000Y-76571428D01*
X162928571Y-77857142D02*
X162928571Y-75857142D01*
X162928571Y-76142857D02*
X163071428Y-76000000D01*
X163357142Y-75857142D01*
X163785714Y-75857142D01*
X164071428Y-76000000D01*
X164214285Y-76285714D01*
X164214285Y-77857142D01*
X164214285Y-76285714D02*
X164357142Y-76000000D01*
X164642857Y-75857142D01*
X165071428Y-75857142D01*
X165357142Y-76000000D01*
X165500000Y-76285714D01*
X165500000Y-77857142D01*
X168071428Y-77714285D02*
X167785714Y-77857142D01*
X167214285Y-77857142D01*
X166928571Y-77714285D01*
X166785714Y-77428571D01*
X166785714Y-76285714D01*
X166928571Y-76000000D01*
X167214285Y-75857142D01*
X167785714Y-75857142D01*
X168071428Y-76000000D01*
X168214285Y-76285714D01*
X168214285Y-76571428D01*
X166785714Y-76857142D01*
X173071428Y-75857142D02*
X173071428Y-77857142D01*
X172357142Y-74714285D02*
X171642857Y-76857142D01*
X173500000Y-76857142D01*
X175214285Y-74857142D02*
X175500000Y-74857142D01*
X175785714Y-75000000D01*
X175928571Y-75142857D01*
X176071428Y-75428571D01*
X176214285Y-76000000D01*
X176214285Y-76714285D01*
X176071428Y-77285714D01*
X175928571Y-77571428D01*
X175785714Y-77714285D01*
X175500000Y-77857142D01*
X175214285Y-77857142D01*
X174928571Y-77714285D01*
X174785714Y-77571428D01*
X174642857Y-77285714D01*
X174500000Y-76714285D01*
X174500000Y-76000000D01*
X174642857Y-75428571D01*
X174785714Y-75142857D01*
X174928571Y-75000000D01*
X175214285Y-74857142D01*
X178071428Y-74857142D02*
X178357142Y-74857142D01*
X178642857Y-75000000D01*
X178785714Y-75142857D01*
X178928571Y-75428571D01*
X179071428Y-76000000D01*
X179071428Y-76714285D01*
X178928571Y-77285714D01*
X178785714Y-77571428D01*
X178642857Y-77714285D01*
X178357142Y-77857142D01*
X178071428Y-77857142D01*
X177785714Y-77714285D01*
X177642857Y-77571428D01*
X177500000Y-77285714D01*
X177357142Y-76714285D01*
X177357142Y-76000000D01*
X177500000Y-75428571D01*
X177642857Y-75142857D01*
X177785714Y-75000000D01*
X178071428Y-74857142D01*
X180928571Y-74857142D02*
X181214285Y-74857142D01*
X181500000Y-75000000D01*
X181642857Y-75142857D01*
X181785714Y-75428571D01*
X181928571Y-76000000D01*
X181928571Y-76714285D01*
X181785714Y-77285714D01*
X181642857Y-77571428D01*
X181500000Y-77714285D01*
X181214285Y-77857142D01*
X180928571Y-77857142D01*
X180642857Y-77714285D01*
X180500000Y-77571428D01*
X180357142Y-77285714D01*
X180214285Y-76714285D01*
X180214285Y-76000000D01*
X180357142Y-75428571D01*
X180500000Y-75142857D01*
X180642857Y-75000000D01*
X180928571Y-74857142D01*
D11*
X145928571Y-25200000D02*
X146642857Y-25200000D01*
X145785714Y-25628571D02*
X146285714Y-24128571D01*
X146785714Y-25628571D01*
X147500000Y-25628571D02*
X147357142Y-25557142D01*
X147285714Y-25414285D01*
X147285714Y-24128571D01*
X148285714Y-25628571D02*
X148142857Y-25557142D01*
X148071428Y-25414285D01*
X148071428Y-24128571D01*
X150000000Y-25628571D02*
X150000000Y-24128571D01*
X150000000Y-24842857D02*
X150857142Y-24842857D01*
X150857142Y-25628571D02*
X150857142Y-24128571D01*
X152214285Y-25628571D02*
X152214285Y-24842857D01*
X152142857Y-24700000D01*
X152000000Y-24628571D01*
X151714285Y-24628571D01*
X151571428Y-24700000D01*
X152214285Y-25557142D02*
X152071428Y-25628571D01*
X151714285Y-25628571D01*
X151571428Y-25557142D01*
X151500000Y-25414285D01*
X151500000Y-25271428D01*
X151571428Y-25128571D01*
X151714285Y-25057142D01*
X152071428Y-25057142D01*
X152214285Y-24985714D01*
X152928571Y-24628571D02*
X152928571Y-25628571D01*
X152928571Y-24771428D02*
X153000000Y-24700000D01*
X153142857Y-24628571D01*
X153357142Y-24628571D01*
X153500000Y-24700000D01*
X153571428Y-24842857D01*
X153571428Y-25628571D01*
X154928571Y-25628571D02*
X154928571Y-24128571D01*
X154928571Y-25557142D02*
X154785714Y-25628571D01*
X154500000Y-25628571D01*
X154357142Y-25557142D01*
X154285714Y-25485714D01*
X154214285Y-25342857D01*
X154214285Y-24914285D01*
X154285714Y-24771428D01*
X154357142Y-24700000D01*
X154500000Y-24628571D01*
X154785714Y-24628571D01*
X154928571Y-24700000D01*
X155571428Y-25557142D02*
X155714285Y-25628571D01*
X156000000Y-25628571D01*
X156142857Y-25557142D01*
X156214285Y-25414285D01*
X156214285Y-25342857D01*
X156142857Y-25200000D01*
X156000000Y-25128571D01*
X155785714Y-25128571D01*
X155642857Y-25057142D01*
X155571428Y-24914285D01*
X155571428Y-24842857D01*
X155642857Y-24700000D01*
X155785714Y-24628571D01*
X156000000Y-24628571D01*
X156142857Y-24700000D01*
X157928571Y-25200000D02*
X158642857Y-25200000D01*
X157785714Y-25628571D02*
X158285714Y-24128571D01*
X158785714Y-25628571D01*
X159928571Y-25557142D02*
X159785714Y-25628571D01*
X159500000Y-25628571D01*
X159357142Y-25557142D01*
X159285714Y-25485714D01*
X159214285Y-25342857D01*
X159214285Y-24914285D01*
X159285714Y-24771428D01*
X159357142Y-24700000D01*
X159500000Y-24628571D01*
X159785714Y-24628571D01*
X159928571Y-24700000D01*
X160357142Y-24628571D02*
X160928571Y-24628571D01*
X160571428Y-24128571D02*
X160571428Y-25414285D01*
X160642857Y-25557142D01*
X160785714Y-25628571D01*
X160928571Y-25628571D01*
X161428571Y-25628571D02*
X161428571Y-24628571D01*
X161428571Y-24128571D02*
X161357142Y-24200000D01*
X161428571Y-24271428D01*
X161500000Y-24200000D01*
X161428571Y-24128571D01*
X161428571Y-24271428D01*
X162000000Y-24628571D02*
X162357142Y-25628571D01*
X162714285Y-24628571D01*
X163857142Y-25557142D02*
X163714285Y-25628571D01*
X163428571Y-25628571D01*
X163285714Y-25557142D01*
X163214285Y-25414285D01*
X163214285Y-24842857D01*
X163285714Y-24700000D01*
X163428571Y-24628571D01*
X163714285Y-24628571D01*
X163857142Y-24700000D01*
X163928571Y-24842857D01*
X163928571Y-24985714D01*
X163214285Y-25128571D01*
X165714285Y-25628571D02*
X165714285Y-24128571D01*
X166214285Y-25200000D01*
X166714285Y-24128571D01*
X166714285Y-25628571D01*
X168071428Y-25628571D02*
X168071428Y-24842857D01*
X168000000Y-24700000D01*
X167857142Y-24628571D01*
X167571428Y-24628571D01*
X167428571Y-24700000D01*
X168071428Y-25557142D02*
X167928571Y-25628571D01*
X167571428Y-25628571D01*
X167428571Y-25557142D01*
X167357142Y-25414285D01*
X167357142Y-25271428D01*
X167428571Y-25128571D01*
X167571428Y-25057142D01*
X167928571Y-25057142D01*
X168071428Y-24985714D01*
X168785714Y-25628571D02*
X168785714Y-24128571D01*
X168928571Y-25057142D02*
X169357142Y-25628571D01*
X169357142Y-24628571D02*
X168785714Y-25200000D01*
X170571428Y-25557142D02*
X170428571Y-25628571D01*
X170142857Y-25628571D01*
X170000000Y-25557142D01*
X169928571Y-25414285D01*
X169928571Y-24842857D01*
X170000000Y-24700000D01*
X170142857Y-24628571D01*
X170428571Y-24628571D01*
X170571428Y-24700000D01*
X170642857Y-24842857D01*
X170642857Y-24985714D01*
X169928571Y-25128571D01*
X171285714Y-25628571D02*
X171285714Y-24628571D01*
X171285714Y-24914285D02*
X171357142Y-24771428D01*
X171428571Y-24700000D01*
X171571428Y-24628571D01*
X171714285Y-24628571D01*
X172142857Y-25557142D02*
X172285714Y-25628571D01*
X172571428Y-25628571D01*
X172714285Y-25557142D01*
X172785714Y-25414285D01*
X172785714Y-25342857D01*
X172714285Y-25200000D01*
X172571428Y-25128571D01*
X172357142Y-25128571D01*
X172214285Y-25057142D01*
X172142857Y-24914285D01*
X172142857Y-24842857D01*
X172214285Y-24700000D01*
X172357142Y-24628571D01*
X172571428Y-24628571D01*
X172714285Y-24700000D01*
X173428571Y-24628571D02*
X173428571Y-26128571D01*
X173428571Y-24700000D02*
X173571428Y-24628571D01*
X173857142Y-24628571D01*
X174000000Y-24700000D01*
X174071428Y-24771428D01*
X174142857Y-24914285D01*
X174142857Y-25342857D01*
X174071428Y-25485714D01*
X174000000Y-25557142D01*
X173857142Y-25628571D01*
X173571428Y-25628571D01*
X173428571Y-25557142D01*
X175428571Y-25628571D02*
X175428571Y-24842857D01*
X175357142Y-24700000D01*
X175214285Y-24628571D01*
X174928571Y-24628571D01*
X174785714Y-24700000D01*
X175428571Y-25557142D02*
X175285714Y-25628571D01*
X174928571Y-25628571D01*
X174785714Y-25557142D01*
X174714285Y-25414285D01*
X174714285Y-25271428D01*
X174785714Y-25128571D01*
X174928571Y-25057142D01*
X175285714Y-25057142D01*
X175428571Y-24985714D01*
X176785714Y-25557142D02*
X176642857Y-25628571D01*
X176357142Y-25628571D01*
X176214285Y-25557142D01*
X176142857Y-25485714D01*
X176071428Y-25342857D01*
X176071428Y-24914285D01*
X176142857Y-24771428D01*
X176214285Y-24700000D01*
X176357142Y-24628571D01*
X176642857Y-24628571D01*
X176785714Y-24700000D01*
X178000000Y-25557142D02*
X177857142Y-25628571D01*
X177571428Y-25628571D01*
X177428571Y-25557142D01*
X177357142Y-25414285D01*
X177357142Y-24842857D01*
X177428571Y-24700000D01*
X177571428Y-24628571D01*
X177857142Y-24628571D01*
X178000000Y-24700000D01*
X178071428Y-24842857D01*
X178071428Y-24985714D01*
X177357142Y-25128571D01*
X150750000Y-26821428D02*
X150821428Y-26750000D01*
X150964285Y-26678571D01*
X151321428Y-26678571D01*
X151464285Y-26750000D01*
X151535714Y-26821428D01*
X151607142Y-26964285D01*
X151607142Y-27107142D01*
X151535714Y-27321428D01*
X150678571Y-28178571D01*
X151607142Y-28178571D01*
X152964285Y-26678571D02*
X152250000Y-26678571D01*
X152178571Y-27392857D01*
X152250000Y-27321428D01*
X152392857Y-27250000D01*
X152750000Y-27250000D01*
X152892857Y-27321428D01*
X152964285Y-27392857D01*
X153035714Y-27535714D01*
X153035714Y-27892857D01*
X152964285Y-28035714D01*
X152892857Y-28107142D01*
X152750000Y-28178571D01*
X152392857Y-28178571D01*
X152250000Y-28107142D01*
X152178571Y-28035714D01*
X154392857Y-26678571D02*
X153678571Y-26678571D01*
X153607142Y-27392857D01*
X153678571Y-27321428D01*
X153821428Y-27250000D01*
X154178571Y-27250000D01*
X154321428Y-27321428D01*
X154392857Y-27392857D01*
X154464285Y-27535714D01*
X154464285Y-27892857D01*
X154392857Y-28035714D01*
X154321428Y-28107142D01*
X154178571Y-28178571D01*
X153821428Y-28178571D01*
X153678571Y-28107142D01*
X153607142Y-28035714D01*
X156250000Y-27392857D02*
X156750000Y-27392857D01*
X156964285Y-28178571D02*
X156250000Y-28178571D01*
X156250000Y-26678571D01*
X156964285Y-26678571D01*
X157607142Y-28035714D02*
X157678571Y-28107142D01*
X157607142Y-28178571D01*
X157535714Y-28107142D01*
X157607142Y-28035714D01*
X157607142Y-28178571D01*
X160178571Y-28178571D02*
X159464285Y-28178571D01*
X159464285Y-26678571D01*
X160678571Y-28178571D02*
X160678571Y-27178571D01*
X160678571Y-26678571D02*
X160607142Y-26750000D01*
X160678571Y-26821428D01*
X160750000Y-26750000D01*
X160678571Y-26678571D01*
X160678571Y-26821428D01*
X161392857Y-28178571D02*
X161392857Y-26678571D01*
X161392857Y-27250000D02*
X161535714Y-27178571D01*
X161821428Y-27178571D01*
X161964285Y-27250000D01*
X162035714Y-27321428D01*
X162107142Y-27464285D01*
X162107142Y-27892857D01*
X162035714Y-28035714D01*
X161964285Y-28107142D01*
X161821428Y-28178571D01*
X161535714Y-28178571D01*
X161392857Y-28107142D01*
X163321428Y-28107142D02*
X163178571Y-28178571D01*
X162892857Y-28178571D01*
X162750000Y-28107142D01*
X162678571Y-27964285D01*
X162678571Y-27392857D01*
X162750000Y-27250000D01*
X162892857Y-27178571D01*
X163178571Y-27178571D01*
X163321428Y-27250000D01*
X163392857Y-27392857D01*
X163392857Y-27535714D01*
X162678571Y-27678571D01*
X164035714Y-28178571D02*
X164035714Y-27178571D01*
X164035714Y-27464285D02*
X164107142Y-27321428D01*
X164178571Y-27250000D01*
X164321428Y-27178571D01*
X164464285Y-27178571D01*
X164750000Y-27178571D02*
X165321428Y-27178571D01*
X164964285Y-26678571D02*
X164964285Y-27964285D01*
X165035714Y-28107142D01*
X165178571Y-28178571D01*
X165321428Y-28178571D01*
X165678571Y-27178571D02*
X166035714Y-28178571D01*
X166392857Y-27178571D02*
X166035714Y-28178571D01*
X165892857Y-28535714D01*
X165821428Y-28607142D01*
X165678571Y-28678571D01*
X168035714Y-27178571D02*
X169107142Y-27178571D01*
X168464285Y-26535714D02*
X168035714Y-28464285D01*
X168964285Y-27821428D02*
X167892857Y-27821428D01*
X168535714Y-28464285D02*
X168964285Y-26535714D01*
X169535714Y-26821428D02*
X169607142Y-26750000D01*
X169750000Y-26678571D01*
X170107142Y-26678571D01*
X170250000Y-26750000D01*
X170321428Y-26821428D01*
X170392857Y-26964285D01*
X170392857Y-27107142D01*
X170321428Y-27321428D01*
X169464285Y-28178571D01*
X170392857Y-28178571D01*
X170964285Y-26821428D02*
X171035714Y-26750000D01*
X171178571Y-26678571D01*
X171535714Y-26678571D01*
X171678571Y-26750000D01*
X171750000Y-26821428D01*
X171821428Y-26964285D01*
X171821428Y-27107142D01*
X171750000Y-27321428D01*
X170892857Y-28178571D01*
X171821428Y-28178571D01*
X173178571Y-26678571D02*
X172464285Y-26678571D01*
X172392857Y-27392857D01*
X172464285Y-27321428D01*
X172607142Y-27250000D01*
X172964285Y-27250000D01*
X173107142Y-27321428D01*
X173178571Y-27392857D01*
X173250000Y-27535714D01*
X173250000Y-27892857D01*
X173178571Y-28035714D01*
X173107142Y-28107142D01*
X172964285Y-28178571D01*
X172607142Y-28178571D01*
X172464285Y-28107142D01*
X172392857Y-28035714D01*
X150500000Y-30300000D02*
X151214285Y-30300000D01*
X150357142Y-30728571D02*
X150857142Y-29228571D01*
X151357142Y-30728571D01*
X151857142Y-29728571D02*
X151857142Y-30728571D01*
X151857142Y-29871428D02*
X151928571Y-29800000D01*
X152071428Y-29728571D01*
X152285714Y-29728571D01*
X152428571Y-29800000D01*
X152500000Y-29942857D01*
X152500000Y-30728571D01*
X153214285Y-29728571D02*
X153214285Y-30728571D01*
X153214285Y-29871428D02*
X153285714Y-29800000D01*
X153428571Y-29728571D01*
X153642857Y-29728571D01*
X153785714Y-29800000D01*
X153857142Y-29942857D01*
X153857142Y-30728571D01*
X155642857Y-30300000D02*
X156357142Y-30300000D01*
X155500000Y-30728571D02*
X156000000Y-29228571D01*
X156500000Y-30728571D01*
X157000000Y-30728571D02*
X157000000Y-29728571D01*
X157000000Y-30014285D02*
X157071428Y-29871428D01*
X157142857Y-29800000D01*
X157285714Y-29728571D01*
X157428571Y-29728571D01*
X157928571Y-30728571D02*
X157928571Y-29228571D01*
X157928571Y-29800000D02*
X158071428Y-29728571D01*
X158357142Y-29728571D01*
X158500000Y-29800000D01*
X158571428Y-29871428D01*
X158642857Y-30014285D01*
X158642857Y-30442857D01*
X158571428Y-30585714D01*
X158500000Y-30657142D01*
X158357142Y-30728571D01*
X158071428Y-30728571D01*
X157928571Y-30657142D01*
X159500000Y-30728571D02*
X159357142Y-30657142D01*
X159285714Y-30585714D01*
X159214285Y-30442857D01*
X159214285Y-30014285D01*
X159285714Y-29871428D01*
X159357142Y-29800000D01*
X159500000Y-29728571D01*
X159714285Y-29728571D01*
X159857142Y-29800000D01*
X159928571Y-29871428D01*
X160000000Y-30014285D01*
X160000000Y-30442857D01*
X159928571Y-30585714D01*
X159857142Y-30657142D01*
X159714285Y-30728571D01*
X159500000Y-30728571D01*
X160642857Y-30728571D02*
X160642857Y-29728571D01*
X160642857Y-30014285D02*
X160714285Y-29871428D01*
X160785714Y-29800000D01*
X160928571Y-29728571D01*
X161071428Y-29728571D01*
X161642857Y-30657142D02*
X161642857Y-30728571D01*
X161571428Y-30871428D01*
X161500000Y-30942857D01*
X163428571Y-30728571D02*
X163428571Y-29228571D01*
X163928571Y-30300000D01*
X164428571Y-29228571D01*
X164428571Y-30728571D01*
X165142857Y-30728571D02*
X165142857Y-29228571D01*
X167642857Y-29728571D02*
X167642857Y-30728571D01*
X167285714Y-29157142D02*
X166928571Y-30228571D01*
X167857142Y-30228571D01*
X168642857Y-29871428D02*
X168500000Y-29800000D01*
X168428571Y-29728571D01*
X168357142Y-29585714D01*
X168357142Y-29514285D01*
X168428571Y-29371428D01*
X168500000Y-29300000D01*
X168642857Y-29228571D01*
X168928571Y-29228571D01*
X169071428Y-29300000D01*
X169142857Y-29371428D01*
X169214285Y-29514285D01*
X169214285Y-29585714D01*
X169142857Y-29728571D01*
X169071428Y-29800000D01*
X168928571Y-29871428D01*
X168642857Y-29871428D01*
X168500000Y-29942857D01*
X168428571Y-30014285D01*
X168357142Y-30157142D01*
X168357142Y-30442857D01*
X168428571Y-30585714D01*
X168500000Y-30657142D01*
X168642857Y-30728571D01*
X168928571Y-30728571D01*
X169071428Y-30657142D01*
X169142857Y-30585714D01*
X169214285Y-30442857D01*
X169214285Y-30157142D01*
X169142857Y-30014285D01*
X169071428Y-29942857D01*
X168928571Y-29871428D01*
X170642857Y-30728571D02*
X169785714Y-30728571D01*
X170214285Y-30728571D02*
X170214285Y-29228571D01*
X170071428Y-29442857D01*
X169928571Y-29585714D01*
X169785714Y-29657142D01*
X171571428Y-29228571D02*
X171714285Y-29228571D01*
X171857142Y-29300000D01*
X171928571Y-29371428D01*
X172000000Y-29514285D01*
X172071428Y-29800000D01*
X172071428Y-30157142D01*
X172000000Y-30442857D01*
X171928571Y-30585714D01*
X171857142Y-30657142D01*
X171714285Y-30728571D01*
X171571428Y-30728571D01*
X171428571Y-30657142D01*
X171357142Y-30585714D01*
X171285714Y-30442857D01*
X171214285Y-30157142D01*
X171214285Y-29800000D01*
X171285714Y-29514285D01*
X171357142Y-29371428D01*
X171428571Y-29300000D01*
X171571428Y-29228571D01*
X173357142Y-29728571D02*
X173357142Y-30728571D01*
X173000000Y-29157142D02*
X172642857Y-30228571D01*
X173571428Y-30228571D01*
X165571428Y-32428571D02*
X165857142Y-32428571D01*
X166000000Y-32500000D01*
X166142857Y-32642857D01*
X166214285Y-32928571D01*
X166214285Y-33428571D01*
X166142857Y-33714285D01*
X166000000Y-33857142D01*
X165857142Y-33928571D01*
X165571428Y-33928571D01*
X165428571Y-33857142D01*
X165285714Y-33714285D01*
X165214285Y-33428571D01*
X165214285Y-32928571D01*
X165285714Y-32642857D01*
X165428571Y-32500000D01*
X165571428Y-32428571D01*
X166857142Y-33928571D02*
X166857142Y-32428571D01*
X167714285Y-33928571D01*
X167714285Y-32428571D01*
X169321428Y-32428571D02*
X169607142Y-32428571D01*
X169750000Y-32500000D01*
X169892857Y-32642857D01*
X169964285Y-32928571D01*
X169964285Y-33428571D01*
X169892857Y-33714285D01*
X169750000Y-33857142D01*
X169607142Y-33928571D01*
X169321428Y-33928571D01*
X169178571Y-33857142D01*
X169035714Y-33714285D01*
X168964285Y-33428571D01*
X168964285Y-32928571D01*
X169035714Y-32642857D01*
X169178571Y-32500000D01*
X169321428Y-32428571D01*
X171107142Y-33142857D02*
X170607142Y-33142857D01*
X170607142Y-33928571D02*
X170607142Y-32428571D01*
X171321428Y-32428571D01*
X172392857Y-33142857D02*
X171892857Y-33142857D01*
X171892857Y-33928571D02*
X171892857Y-32428571D01*
X172607142Y-32428571D01*
D12*
X175607142Y-32964285D02*
X177892857Y-32964285D01*
X176750000Y-34107142D02*
X176750000Y-31821428D01*
D11*
X180714285Y-58785714D02*
X181142857Y-58928571D01*
X181285714Y-59071428D01*
X181428571Y-59357142D01*
X181428571Y-59785714D01*
X181285714Y-60071428D01*
X181142857Y-60214285D01*
X180857142Y-60357142D01*
X179714285Y-60357142D01*
X179714285Y-57357142D01*
X180714285Y-57357142D01*
X181000000Y-57500000D01*
X181142857Y-57642857D01*
X181285714Y-57928571D01*
X181285714Y-58214285D01*
X181142857Y-58500000D01*
X181000000Y-58642857D01*
X180714285Y-58785714D01*
X179714285Y-58785714D01*
X165785714Y-59500000D02*
X167214285Y-59500000D01*
X165500000Y-60357142D02*
X166500000Y-57357142D01*
X167500000Y-60357142D01*
D13*
X147445225Y-46275000D02*
X147445225Y-46775000D01*
X147195225Y-46525000D02*
X147695225Y-46525000D01*
X152601000Y-47716000D02*
X152601000Y-48284000D01*
X152561000Y-47482000D02*
X152561000Y-48518000D01*
X152521000Y-47323000D02*
X152521000Y-48677000D01*
X152481000Y-47195000D02*
X152481000Y-48805000D01*
X152441000Y-47085000D02*
X152441000Y-48915000D01*
X152401000Y-46989000D02*
X152401000Y-49011000D01*
X152361000Y-46902000D02*
X152361000Y-49098000D01*
X152321000Y-46822000D02*
X152321000Y-49178000D01*
X152281000Y-49040000D02*
X152281000Y-49251000D01*
X152281000Y-46749000D02*
X152281000Y-46960000D01*
X152241000Y-49040000D02*
X152241000Y-49319000D01*
X152241000Y-46681000D02*
X152241000Y-46960000D01*
X152201000Y-49040000D02*
X152201000Y-49383000D01*
X152201000Y-46617000D02*
X152201000Y-46960000D01*
X152161000Y-49040000D02*
X152161000Y-49443000D01*
X152161000Y-46557000D02*
X152161000Y-46960000D01*
X152121000Y-49040000D02*
X152121000Y-49500000D01*
X152121000Y-46500000D02*
X152121000Y-46960000D01*
X152081000Y-49040000D02*
X152081000Y-49554000D01*
X152081000Y-46446000D02*
X152081000Y-46960000D01*
X152041000Y-49040000D02*
X152041000Y-49605000D01*
X152041000Y-46395000D02*
X152041000Y-46960000D01*
X152001000Y-49040000D02*
X152001000Y-49653000D01*
X152001000Y-46347000D02*
X152001000Y-46960000D01*
X151961000Y-49040000D02*
X151961000Y-49699000D01*
X151961000Y-46301000D02*
X151961000Y-46960000D01*
X151921000Y-49040000D02*
X151921000Y-49743000D01*
X151921000Y-46257000D02*
X151921000Y-46960000D01*
X151881000Y-49040000D02*
X151881000Y-49785000D01*
X151881000Y-46215000D02*
X151881000Y-46960000D01*
X151841000Y-49040000D02*
X151841000Y-49826000D01*
X151841000Y-46174000D02*
X151841000Y-46960000D01*
X151801000Y-49040000D02*
X151801000Y-49864000D01*
X151801000Y-46136000D02*
X151801000Y-46960000D01*
X151761000Y-49040000D02*
X151761000Y-49901000D01*
X151761000Y-46099000D02*
X151761000Y-46960000D01*
X151721000Y-49040000D02*
X151721000Y-49937000D01*
X151721000Y-46063000D02*
X151721000Y-46960000D01*
X151681000Y-49040000D02*
X151681000Y-49971000D01*
X151681000Y-46029000D02*
X151681000Y-46960000D01*
X151641000Y-49040000D02*
X151641000Y-50004000D01*
X151641000Y-45996000D02*
X151641000Y-46960000D01*
X151601000Y-49040000D02*
X151601000Y-50035000D01*
X151601000Y-45965000D02*
X151601000Y-46960000D01*
X151561000Y-49040000D02*
X151561000Y-50065000D01*
X151561000Y-45935000D02*
X151561000Y-46960000D01*
X151521000Y-49040000D02*
X151521000Y-50095000D01*
X151521000Y-45905000D02*
X151521000Y-46960000D01*
X151481000Y-49040000D02*
X151481000Y-50122000D01*
X151481000Y-45878000D02*
X151481000Y-46960000D01*
X151441000Y-49040000D02*
X151441000Y-50149000D01*
X151441000Y-45851000D02*
X151441000Y-46960000D01*
X151401000Y-49040000D02*
X151401000Y-50175000D01*
X151401000Y-45825000D02*
X151401000Y-46960000D01*
X151361000Y-49040000D02*
X151361000Y-50200000D01*
X151361000Y-45800000D02*
X151361000Y-46960000D01*
X151321000Y-49040000D02*
X151321000Y-50224000D01*
X151321000Y-45776000D02*
X151321000Y-46960000D01*
X151281000Y-49040000D02*
X151281000Y-50247000D01*
X151281000Y-45753000D02*
X151281000Y-46960000D01*
X151241000Y-49040000D02*
X151241000Y-50268000D01*
X151241000Y-45732000D02*
X151241000Y-46960000D01*
X151201000Y-49040000D02*
X151201000Y-50290000D01*
X151201000Y-45710000D02*
X151201000Y-46960000D01*
X151161000Y-49040000D02*
X151161000Y-50310000D01*
X151161000Y-45690000D02*
X151161000Y-46960000D01*
X151121000Y-49040000D02*
X151121000Y-50329000D01*
X151121000Y-45671000D02*
X151121000Y-46960000D01*
X151081000Y-49040000D02*
X151081000Y-50348000D01*
X151081000Y-45652000D02*
X151081000Y-46960000D01*
X151041000Y-49040000D02*
X151041000Y-50365000D01*
X151041000Y-45635000D02*
X151041000Y-46960000D01*
X151001000Y-49040000D02*
X151001000Y-50382000D01*
X151001000Y-45618000D02*
X151001000Y-46960000D01*
X150961000Y-49040000D02*
X150961000Y-50398000D01*
X150961000Y-45602000D02*
X150961000Y-46960000D01*
X150921000Y-49040000D02*
X150921000Y-50414000D01*
X150921000Y-45586000D02*
X150921000Y-46960000D01*
X150881000Y-49040000D02*
X150881000Y-50428000D01*
X150881000Y-45572000D02*
X150881000Y-46960000D01*
X150841000Y-49040000D02*
X150841000Y-50442000D01*
X150841000Y-45558000D02*
X150841000Y-46960000D01*
X150801000Y-49040000D02*
X150801000Y-50455000D01*
X150801000Y-45545000D02*
X150801000Y-46960000D01*
X150761000Y-49040000D02*
X150761000Y-50468000D01*
X150761000Y-45532000D02*
X150761000Y-46960000D01*
X150721000Y-49040000D02*
X150721000Y-50480000D01*
X150721000Y-45520000D02*
X150721000Y-46960000D01*
X150680000Y-49040000D02*
X150680000Y-50491000D01*
X150680000Y-45509000D02*
X150680000Y-46960000D01*
X150640000Y-49040000D02*
X150640000Y-50501000D01*
X150640000Y-45499000D02*
X150640000Y-46960000D01*
X150600000Y-49040000D02*
X150600000Y-50511000D01*
X150600000Y-45489000D02*
X150600000Y-46960000D01*
X150560000Y-49040000D02*
X150560000Y-50520000D01*
X150560000Y-45480000D02*
X150560000Y-46960000D01*
X150520000Y-49040000D02*
X150520000Y-50528000D01*
X150520000Y-45472000D02*
X150520000Y-46960000D01*
X150480000Y-49040000D02*
X150480000Y-50536000D01*
X150480000Y-45464000D02*
X150480000Y-46960000D01*
X150440000Y-49040000D02*
X150440000Y-50543000D01*
X150440000Y-45457000D02*
X150440000Y-46960000D01*
X150400000Y-49040000D02*
X150400000Y-50550000D01*
X150400000Y-45450000D02*
X150400000Y-46960000D01*
X150360000Y-49040000D02*
X150360000Y-50556000D01*
X150360000Y-45444000D02*
X150360000Y-46960000D01*
X150320000Y-49040000D02*
X150320000Y-50561000D01*
X150320000Y-45439000D02*
X150320000Y-46960000D01*
X150280000Y-49040000D02*
X150280000Y-50565000D01*
X150280000Y-45435000D02*
X150280000Y-46960000D01*
X150240000Y-49040000D02*
X150240000Y-50569000D01*
X150240000Y-45431000D02*
X150240000Y-46960000D01*
X150200000Y-45427000D02*
X150200000Y-50573000D01*
X150160000Y-45424000D02*
X150160000Y-50576000D01*
X150120000Y-45422000D02*
X150120000Y-50578000D01*
X150080000Y-45421000D02*
X150080000Y-50579000D01*
X150040000Y-45420000D02*
X150040000Y-50580000D01*
X150000000Y-45420000D02*
X150000000Y-50580000D01*
X152620000Y-48000000D02*
G75*
G03X152620000Y-48000000I-2620000J0D01*
G01*
X163054775Y-39225000D02*
X163054775Y-38725000D01*
X163304775Y-38975000D02*
X162804775Y-38975000D01*
X157899000Y-37784000D02*
X157899000Y-37216000D01*
X157939000Y-38018000D02*
X157939000Y-36982000D01*
X157979000Y-38177000D02*
X157979000Y-36823000D01*
X158019000Y-38305000D02*
X158019000Y-36695000D01*
X158059000Y-38415000D02*
X158059000Y-36585000D01*
X158099000Y-38511000D02*
X158099000Y-36489000D01*
X158139000Y-38598000D02*
X158139000Y-36402000D01*
X158179000Y-38678000D02*
X158179000Y-36322000D01*
X158219000Y-36460000D02*
X158219000Y-36249000D01*
X158219000Y-38751000D02*
X158219000Y-38540000D01*
X158259000Y-36460000D02*
X158259000Y-36181000D01*
X158259000Y-38819000D02*
X158259000Y-38540000D01*
X158299000Y-36460000D02*
X158299000Y-36117000D01*
X158299000Y-38883000D02*
X158299000Y-38540000D01*
X158339000Y-36460000D02*
X158339000Y-36057000D01*
X158339000Y-38943000D02*
X158339000Y-38540000D01*
X158379000Y-36460000D02*
X158379000Y-36000000D01*
X158379000Y-39000000D02*
X158379000Y-38540000D01*
X158419000Y-36460000D02*
X158419000Y-35946000D01*
X158419000Y-39054000D02*
X158419000Y-38540000D01*
X158459000Y-36460000D02*
X158459000Y-35895000D01*
X158459000Y-39105000D02*
X158459000Y-38540000D01*
X158499000Y-36460000D02*
X158499000Y-35847000D01*
X158499000Y-39153000D02*
X158499000Y-38540000D01*
X158539000Y-36460000D02*
X158539000Y-35801000D01*
X158539000Y-39199000D02*
X158539000Y-38540000D01*
X158579000Y-36460000D02*
X158579000Y-35757000D01*
X158579000Y-39243000D02*
X158579000Y-38540000D01*
X158619000Y-36460000D02*
X158619000Y-35715000D01*
X158619000Y-39285000D02*
X158619000Y-38540000D01*
X158659000Y-36460000D02*
X158659000Y-35674000D01*
X158659000Y-39326000D02*
X158659000Y-38540000D01*
X158699000Y-36460000D02*
X158699000Y-35636000D01*
X158699000Y-39364000D02*
X158699000Y-38540000D01*
X158739000Y-36460000D02*
X158739000Y-35599000D01*
X158739000Y-39401000D02*
X158739000Y-38540000D01*
X158779000Y-36460000D02*
X158779000Y-35563000D01*
X158779000Y-39437000D02*
X158779000Y-38540000D01*
X158819000Y-36460000D02*
X158819000Y-35529000D01*
X158819000Y-39471000D02*
X158819000Y-38540000D01*
X158859000Y-36460000D02*
X158859000Y-35496000D01*
X158859000Y-39504000D02*
X158859000Y-38540000D01*
X158899000Y-36460000D02*
X158899000Y-35465000D01*
X158899000Y-39535000D02*
X158899000Y-38540000D01*
X158939000Y-36460000D02*
X158939000Y-35435000D01*
X158939000Y-39565000D02*
X158939000Y-38540000D01*
X158979000Y-36460000D02*
X158979000Y-35405000D01*
X158979000Y-39595000D02*
X158979000Y-38540000D01*
X159019000Y-36460000D02*
X159019000Y-35378000D01*
X159019000Y-39622000D02*
X159019000Y-38540000D01*
X159059000Y-36460000D02*
X159059000Y-35351000D01*
X159059000Y-39649000D02*
X159059000Y-38540000D01*
X159099000Y-36460000D02*
X159099000Y-35325000D01*
X159099000Y-39675000D02*
X159099000Y-38540000D01*
X159139000Y-36460000D02*
X159139000Y-35300000D01*
X159139000Y-39700000D02*
X159139000Y-38540000D01*
X159179000Y-36460000D02*
X159179000Y-35276000D01*
X159179000Y-39724000D02*
X159179000Y-38540000D01*
X159219000Y-36460000D02*
X159219000Y-35253000D01*
X159219000Y-39747000D02*
X159219000Y-38540000D01*
X159259000Y-36460000D02*
X159259000Y-35232000D01*
X159259000Y-39768000D02*
X159259000Y-38540000D01*
X159299000Y-36460000D02*
X159299000Y-35210000D01*
X159299000Y-39790000D02*
X159299000Y-38540000D01*
X159339000Y-36460000D02*
X159339000Y-35190000D01*
X159339000Y-39810000D02*
X159339000Y-38540000D01*
X159379000Y-36460000D02*
X159379000Y-35171000D01*
X159379000Y-39829000D02*
X159379000Y-38540000D01*
X159419000Y-36460000D02*
X159419000Y-35152000D01*
X159419000Y-39848000D02*
X159419000Y-38540000D01*
X159459000Y-36460000D02*
X159459000Y-35135000D01*
X159459000Y-39865000D02*
X159459000Y-38540000D01*
X159499000Y-36460000D02*
X159499000Y-35118000D01*
X159499000Y-39882000D02*
X159499000Y-38540000D01*
X159539000Y-36460000D02*
X159539000Y-35102000D01*
X159539000Y-39898000D02*
X159539000Y-38540000D01*
X159579000Y-36460000D02*
X159579000Y-35086000D01*
X159579000Y-39914000D02*
X159579000Y-38540000D01*
X159619000Y-36460000D02*
X159619000Y-35072000D01*
X159619000Y-39928000D02*
X159619000Y-38540000D01*
X159659000Y-36460000D02*
X159659000Y-35058000D01*
X159659000Y-39942000D02*
X159659000Y-38540000D01*
X159699000Y-36460000D02*
X159699000Y-35045000D01*
X159699000Y-39955000D02*
X159699000Y-38540000D01*
X159739000Y-36460000D02*
X159739000Y-35032000D01*
X159739000Y-39968000D02*
X159739000Y-38540000D01*
X159779000Y-36460000D02*
X159779000Y-35020000D01*
X159779000Y-39980000D02*
X159779000Y-38540000D01*
X159820000Y-36460000D02*
X159820000Y-35009000D01*
X159820000Y-39991000D02*
X159820000Y-38540000D01*
X159860000Y-36460000D02*
X159860000Y-34999000D01*
X159860000Y-40001000D02*
X159860000Y-38540000D01*
X159900000Y-36460000D02*
X159900000Y-34989000D01*
X159900000Y-40011000D02*
X159900000Y-38540000D01*
X159940000Y-36460000D02*
X159940000Y-34980000D01*
X159940000Y-40020000D02*
X159940000Y-38540000D01*
X159980000Y-36460000D02*
X159980000Y-34972000D01*
X159980000Y-40028000D02*
X159980000Y-38540000D01*
X160020000Y-36460000D02*
X160020000Y-34964000D01*
X160020000Y-40036000D02*
X160020000Y-38540000D01*
X160060000Y-36460000D02*
X160060000Y-34957000D01*
X160060000Y-40043000D02*
X160060000Y-38540000D01*
X160100000Y-36460000D02*
X160100000Y-34950000D01*
X160100000Y-40050000D02*
X160100000Y-38540000D01*
X160140000Y-36460000D02*
X160140000Y-34944000D01*
X160140000Y-40056000D02*
X160140000Y-38540000D01*
X160180000Y-36460000D02*
X160180000Y-34939000D01*
X160180000Y-40061000D02*
X160180000Y-38540000D01*
X160220000Y-36460000D02*
X160220000Y-34935000D01*
X160220000Y-40065000D02*
X160220000Y-38540000D01*
X160260000Y-36460000D02*
X160260000Y-34931000D01*
X160260000Y-40069000D02*
X160260000Y-38540000D01*
X160300000Y-40073000D02*
X160300000Y-34927000D01*
X160340000Y-40076000D02*
X160340000Y-34924000D01*
X160380000Y-40078000D02*
X160380000Y-34922000D01*
X160420000Y-40079000D02*
X160420000Y-34921000D01*
X160460000Y-40080000D02*
X160460000Y-34920000D01*
X160500000Y-40080000D02*
X160500000Y-34920000D01*
X163120000Y-37500000D02*
G75*
G03X163120000Y-37500000I-2620000J0D01*
G01*
X147560000Y-36890000D02*
X147560000Y-41610000D01*
X145440000Y-36890000D02*
X145440000Y-41610000D01*
X147560000Y-36890000D02*
X145440000Y-36890000D01*
X147560000Y-41610000D02*
X145440000Y-41610000D01*
X99890000Y-37940000D02*
X104610000Y-37940000D01*
X99890000Y-40060000D02*
X104610000Y-40060000D01*
X99890000Y-37940000D02*
X99890000Y-40060000D01*
X104610000Y-37940000D02*
X104610000Y-40060000D01*
X100420000Y-27560000D02*
X115780000Y-27560000D01*
X115780000Y-27560000D02*
X115780000Y-24900000D01*
X115780000Y-24900000D02*
X100420000Y-24900000D01*
X100420000Y-24900000D02*
X100420000Y-27560000D01*
X101370000Y-24900000D02*
X101370000Y-18900000D01*
X101370000Y-18900000D02*
X102130000Y-18900000D01*
X102130000Y-18900000D02*
X102130000Y-24900000D01*
X101430000Y-24900000D02*
X101430000Y-18900000D01*
X101550000Y-24900000D02*
X101550000Y-18900000D01*
X101670000Y-24900000D02*
X101670000Y-18900000D01*
X101790000Y-24900000D02*
X101790000Y-18900000D01*
X101910000Y-24900000D02*
X101910000Y-18900000D01*
X102030000Y-24900000D02*
X102030000Y-18900000D01*
X101370000Y-27890000D02*
X101370000Y-27560000D01*
X102130000Y-27890000D02*
X102130000Y-27560000D01*
X103020000Y-27560000D02*
X103020000Y-24900000D01*
X103910000Y-24900000D02*
X103910000Y-18900000D01*
X103910000Y-18900000D02*
X104670000Y-18900000D01*
X104670000Y-18900000D02*
X104670000Y-24900000D01*
X103910000Y-27957071D02*
X103910000Y-27560000D01*
X104670000Y-27957071D02*
X104670000Y-27560000D01*
X105560000Y-27560000D02*
X105560000Y-24900000D01*
X106450000Y-24900000D02*
X106450000Y-18900000D01*
X106450000Y-18900000D02*
X107210000Y-18900000D01*
X107210000Y-18900000D02*
X107210000Y-24900000D01*
X106450000Y-27957071D02*
X106450000Y-27560000D01*
X107210000Y-27957071D02*
X107210000Y-27560000D01*
X108100000Y-27560000D02*
X108100000Y-24900000D01*
X108990000Y-24900000D02*
X108990000Y-18900000D01*
X108990000Y-18900000D02*
X109750000Y-18900000D01*
X109750000Y-18900000D02*
X109750000Y-24900000D01*
X108990000Y-27957071D02*
X108990000Y-27560000D01*
X109750000Y-27957071D02*
X109750000Y-27560000D01*
X110640000Y-27560000D02*
X110640000Y-24900000D01*
X111530000Y-24900000D02*
X111530000Y-18900000D01*
X111530000Y-18900000D02*
X112290000Y-18900000D01*
X112290000Y-18900000D02*
X112290000Y-24900000D01*
X111530000Y-27957071D02*
X111530000Y-27560000D01*
X112290000Y-27957071D02*
X112290000Y-27560000D01*
X113180000Y-27560000D02*
X113180000Y-24900000D01*
X114070000Y-24900000D02*
X114070000Y-18900000D01*
X114070000Y-18900000D02*
X114830000Y-18900000D01*
X114830000Y-18900000D02*
X114830000Y-24900000D01*
X114070000Y-27957071D02*
X114070000Y-27560000D01*
X114830000Y-27957071D02*
X114830000Y-27560000D01*
X101750000Y-30270000D02*
X100480000Y-30270000D01*
X100480000Y-30270000D02*
X100480000Y-29000000D01*
X91750000Y-50750000D02*
X96250000Y-50750000D01*
X90500000Y-46750000D02*
X90500000Y-48250000D01*
X96250000Y-44250000D02*
X91750000Y-44250000D01*
X97500000Y-48250000D02*
X97500000Y-46750000D01*
X97500000Y-70250000D02*
X97500000Y-68750000D01*
X96250000Y-66250000D02*
X91750000Y-66250000D01*
X90500000Y-68750000D02*
X90500000Y-70250000D01*
X91750000Y-72750000D02*
X96250000Y-72750000D01*
X80500000Y-61750000D02*
X85000000Y-61750000D01*
X79250000Y-57750000D02*
X79250000Y-59250000D01*
X85000000Y-55250000D02*
X80500000Y-55250000D01*
X86250000Y-59250000D02*
X86250000Y-57750000D01*
X109250000Y-59250000D02*
X109250000Y-57750000D01*
X108000000Y-55250000D02*
X103500000Y-55250000D01*
X102250000Y-57750000D02*
X102250000Y-59250000D01*
X103500000Y-61750000D02*
X108000000Y-61750000D01*
X163250000Y-59500000D02*
X163250000Y-58000000D01*
X162000000Y-55500000D02*
X157500000Y-55500000D01*
X156250000Y-58000000D02*
X156250000Y-59500000D01*
X157500000Y-62000000D02*
X162000000Y-62000000D01*
X171750000Y-62000000D02*
X176250000Y-62000000D01*
X170500000Y-58000000D02*
X170500000Y-59500000D01*
X176250000Y-55500000D02*
X171750000Y-55500000D01*
X177500000Y-59500000D02*
X177500000Y-58000000D01*
X125750000Y-71250000D02*
X125750000Y-69750000D01*
X124500000Y-67250000D02*
X120000000Y-67250000D01*
X118750000Y-69750000D02*
X118750000Y-71250000D01*
X120000000Y-73750000D02*
X124500000Y-73750000D01*
X135500000Y-73750000D02*
X140000000Y-73750000D01*
X134250000Y-69750000D02*
X134250000Y-71250000D01*
X140000000Y-67250000D02*
X135500000Y-67250000D01*
X141250000Y-71250000D02*
X141250000Y-69750000D01*
X157250000Y-51000000D02*
X161750000Y-51000000D01*
X156000000Y-47000000D02*
X156000000Y-48500000D01*
X161750000Y-44500000D02*
X157250000Y-44500000D01*
X163000000Y-48500000D02*
X163000000Y-47000000D01*
X177500000Y-48500000D02*
X177500000Y-47000000D01*
X176250000Y-44500000D02*
X171750000Y-44500000D01*
X170500000Y-47000000D02*
X170500000Y-48500000D01*
X171750000Y-51000000D02*
X176250000Y-51000000D01*
X164900000Y-40900000D02*
X164900000Y-34850000D01*
X164900000Y-34850000D02*
X172700000Y-34850000D01*
X172700000Y-34850000D02*
X172700000Y-40900000D01*
X172700000Y-40900000D02*
X164900000Y-40900000D01*
X166250000Y-40800000D02*
X166250000Y-39790000D01*
X166250000Y-39790000D02*
X171330000Y-39790000D01*
X171330000Y-39790000D02*
X171330000Y-40800000D01*
D14*
X100425000Y-48075000D02*
X100450000Y-48075000D01*
X100425000Y-43925000D02*
X100530000Y-43925000D01*
X110575000Y-43925000D02*
X110470000Y-43925000D01*
X110575000Y-48075000D02*
X110470000Y-48075000D01*
X100425000Y-48075000D02*
X100425000Y-43925000D01*
X110575000Y-48075000D02*
X110575000Y-43925000D01*
X100450000Y-48075000D02*
X100450000Y-49450000D01*
D13*
X139120000Y-64120000D02*
X122880000Y-64120000D01*
X122880000Y-64120000D02*
X122880000Y-56500000D01*
X122880000Y-40500000D02*
X122880000Y-39880000D01*
X122880000Y-39880000D02*
X125000000Y-39880000D01*
X137000000Y-39880000D02*
X139120000Y-39880000D01*
X139120000Y-39880000D02*
X139120000Y-40500000D01*
X139120000Y-56500000D02*
X139120000Y-64120000D01*
X139120000Y-56500000D02*
X139730000Y-56500000D01*
X151090000Y-34590000D02*
X151090000Y-35850000D01*
X151090000Y-41410000D02*
X151090000Y-40150000D01*
X154850000Y-34590000D02*
X151090000Y-34590000D01*
X157100000Y-41410000D02*
X151090000Y-41410000D01*
X92120000Y-52830000D02*
X95960000Y-52830000D01*
X92120000Y-54670000D02*
X95960000Y-54670000D01*
X92120000Y-77420000D02*
X95960000Y-77420000D01*
X92120000Y-75580000D02*
X95960000Y-75580000D01*
X81120000Y-64080000D02*
X84960000Y-64080000D01*
X81120000Y-65920000D02*
X84960000Y-65920000D01*
X103870000Y-65920000D02*
X107710000Y-65920000D01*
X103870000Y-64080000D02*
X107710000Y-64080000D01*
X157870000Y-64830000D02*
X161710000Y-64830000D01*
X157870000Y-66670000D02*
X161710000Y-66670000D01*
X172120000Y-66670000D02*
X175960000Y-66670000D01*
X172120000Y-64830000D02*
X175960000Y-64830000D01*
X128080000Y-72380000D02*
X128080000Y-68540000D01*
X129920000Y-72380000D02*
X129920000Y-68540000D01*
X143330000Y-72380000D02*
X143330000Y-68540000D01*
X145170000Y-72380000D02*
X145170000Y-68540000D01*
X152080000Y-55370000D02*
X152080000Y-59210000D01*
X153920000Y-55370000D02*
X153920000Y-59210000D01*
X167420000Y-46120000D02*
X167420000Y-49960000D01*
X165580000Y-46120000D02*
X165580000Y-49960000D01*
X120420000Y-42880000D02*
X120420000Y-39040000D01*
X118580000Y-42880000D02*
X118580000Y-39040000D01*
X114580000Y-44130000D02*
X114580000Y-40290000D01*
X116420000Y-44130000D02*
X116420000Y-40290000D01*
X175420000Y-40620000D02*
X178080000Y-40620000D01*
X175420000Y-38020000D02*
X175420000Y-40620000D01*
X178080000Y-38020000D02*
X178080000Y-40620000D01*
X175420000Y-38020000D02*
X178080000Y-38020000D01*
X175420000Y-36750000D02*
X175420000Y-35420000D01*
X175420000Y-35420000D02*
X176750000Y-35420000D01*
X115330000Y-47630000D02*
X112670000Y-47630000D01*
X115330000Y-50230000D02*
X115330000Y-47630000D01*
X112670000Y-50230000D02*
X112670000Y-47630000D01*
X115330000Y-50230000D02*
X112670000Y-50230000D01*
X115330000Y-51500000D02*
X115330000Y-52830000D01*
X115330000Y-52830000D02*
X114000000Y-52830000D01*
D15*
G36*
X79253033Y-29711129D02*
X79557087Y-29888170D01*
X79738375Y-30170919D01*
X79773543Y-30312266D01*
X79789743Y-30701978D01*
X79686817Y-30985171D01*
X79452398Y-31176959D01*
X79074119Y-31292457D01*
X78956299Y-31311090D01*
X78712169Y-31329338D01*
X78534257Y-31283454D01*
X78342698Y-31147440D01*
X78275552Y-31089501D01*
X78034184Y-30789000D01*
X77958219Y-30454516D01*
X77991600Y-30314671D01*
X78240522Y-30314671D01*
X78260363Y-30575174D01*
X78448055Y-30852460D01*
X78450859Y-30855395D01*
X78679382Y-31023180D01*
X78922622Y-31044235D01*
X79209813Y-30918165D01*
X79320000Y-30843641D01*
X79502072Y-30633296D01*
X79563735Y-30385479D01*
X79500271Y-30154018D01*
X79390585Y-30038467D01*
X79117117Y-29926655D01*
X78801482Y-29909585D01*
X78515540Y-29984803D01*
X78388667Y-30072667D01*
X78240522Y-30314671D01*
X77991600Y-30314671D01*
X78047039Y-30082424D01*
X78089202Y-29994055D01*
X78220054Y-29801230D01*
X78393510Y-29695349D01*
X78659299Y-29653602D01*
X78840091Y-29649650D01*
X79253033Y-29711129D01*
X79253033Y-29711129D01*
G37*
X79253033Y-29711129D02*
X79557087Y-29888170D01*
X79738375Y-30170919D01*
X79773543Y-30312266D01*
X79789743Y-30701978D01*
X79686817Y-30985171D01*
X79452398Y-31176959D01*
X79074119Y-31292457D01*
X78956299Y-31311090D01*
X78712169Y-31329338D01*
X78534257Y-31283454D01*
X78342698Y-31147440D01*
X78275552Y-31089501D01*
X78034184Y-30789000D01*
X77958219Y-30454516D01*
X77991600Y-30314671D01*
X78240522Y-30314671D01*
X78260363Y-30575174D01*
X78448055Y-30852460D01*
X78450859Y-30855395D01*
X78679382Y-31023180D01*
X78922622Y-31044235D01*
X79209813Y-30918165D01*
X79320000Y-30843641D01*
X79502072Y-30633296D01*
X79563735Y-30385479D01*
X79500271Y-30154018D01*
X79390585Y-30038467D01*
X79117117Y-29926655D01*
X78801482Y-29909585D01*
X78515540Y-29984803D01*
X78388667Y-30072667D01*
X78240522Y-30314671D01*
X77991600Y-30314671D01*
X78047039Y-30082424D01*
X78089202Y-29994055D01*
X78220054Y-29801230D01*
X78393510Y-29695349D01*
X78659299Y-29653602D01*
X78840091Y-29649650D01*
X79253033Y-29711129D01*
G36*
X79401014Y-31554511D02*
X79643804Y-31683841D01*
X79794402Y-31903029D01*
X79828000Y-32107481D01*
X79780873Y-32381714D01*
X79659154Y-32692795D01*
X79492331Y-32986391D01*
X79309895Y-33208169D01*
X79184406Y-33293267D01*
X78898590Y-33354720D01*
X78569932Y-33362178D01*
X78304000Y-33314601D01*
X78040528Y-33139846D01*
X77895246Y-32875759D01*
X77890675Y-32811835D01*
X78150847Y-32811835D01*
X78198656Y-32890141D01*
X78331122Y-32967985D01*
X78367500Y-32987573D01*
X78575790Y-33088921D01*
X78720153Y-33106908D01*
X78880830Y-33046997D01*
X78923399Y-33025420D01*
X79250039Y-32808969D01*
X79430821Y-32556910D01*
X79489206Y-32235724D01*
X79489333Y-32216908D01*
X79482298Y-31988731D01*
X79435479Y-31882884D01*
X79310311Y-31852369D01*
X79188795Y-31850667D01*
X78779485Y-31919072D01*
X78470570Y-32123340D01*
X78272161Y-32441794D01*
X78178435Y-32680056D01*
X78150847Y-32811835D01*
X77890675Y-32811835D01*
X77872552Y-32558406D01*
X77976841Y-32223853D01*
X78141632Y-31982669D01*
X78436341Y-31729118D01*
X78765597Y-31574804D01*
X79097717Y-31517383D01*
X79401014Y-31554511D01*
X79401014Y-31554511D01*
G37*
X79401014Y-31554511D02*
X79643804Y-31683841D01*
X79794402Y-31903029D01*
X79828000Y-32107481D01*
X79780873Y-32381714D01*
X79659154Y-32692795D01*
X79492331Y-32986391D01*
X79309895Y-33208169D01*
X79184406Y-33293267D01*
X78898590Y-33354720D01*
X78569932Y-33362178D01*
X78304000Y-33314601D01*
X78040528Y-33139846D01*
X77895246Y-32875759D01*
X77890675Y-32811835D01*
X78150847Y-32811835D01*
X78198656Y-32890141D01*
X78331122Y-32967985D01*
X78367500Y-32987573D01*
X78575790Y-33088921D01*
X78720153Y-33106908D01*
X78880830Y-33046997D01*
X78923399Y-33025420D01*
X79250039Y-32808969D01*
X79430821Y-32556910D01*
X79489206Y-32235724D01*
X79489333Y-32216908D01*
X79482298Y-31988731D01*
X79435479Y-31882884D01*
X79310311Y-31852369D01*
X79188795Y-31850667D01*
X78779485Y-31919072D01*
X78470570Y-32123340D01*
X78272161Y-32441794D01*
X78178435Y-32680056D01*
X78150847Y-32811835D01*
X77890675Y-32811835D01*
X77872552Y-32558406D01*
X77976841Y-32223853D01*
X78141632Y-31982669D01*
X78436341Y-31729118D01*
X78765597Y-31574804D01*
X79097717Y-31517383D01*
X79401014Y-31554511D01*
G36*
X93051177Y-32606543D02*
X93066915Y-32618812D01*
X93245279Y-32841836D01*
X93289706Y-33092908D01*
X93198005Y-33322232D01*
X93101828Y-33412199D01*
X92825891Y-33531189D01*
X92575863Y-33501077D01*
X92405801Y-33355828D01*
X92297972Y-33094620D01*
X92628027Y-33094620D01*
X92647542Y-33174095D01*
X92739134Y-33270202D01*
X92849914Y-33233839D01*
X92929120Y-33086742D01*
X92936055Y-33050535D01*
X92912571Y-32897990D01*
X92835219Y-32866667D01*
X92675061Y-32932248D01*
X92628027Y-33094620D01*
X92297972Y-33094620D01*
X92285589Y-33064624D01*
X92323937Y-32784133D01*
X92443333Y-32612667D01*
X92634863Y-32471542D01*
X92821186Y-32469340D01*
X93051177Y-32606543D01*
X93051177Y-32606543D01*
G37*
X93051177Y-32606543D02*
X93066915Y-32618812D01*
X93245279Y-32841836D01*
X93289706Y-33092908D01*
X93198005Y-33322232D01*
X93101828Y-33412199D01*
X92825891Y-33531189D01*
X92575863Y-33501077D01*
X92405801Y-33355828D01*
X92297972Y-33094620D01*
X92628027Y-33094620D01*
X92647542Y-33174095D01*
X92739134Y-33270202D01*
X92849914Y-33233839D01*
X92929120Y-33086742D01*
X92936055Y-33050535D01*
X92912571Y-32897990D01*
X92835219Y-32866667D01*
X92675061Y-32932248D01*
X92628027Y-33094620D01*
X92297972Y-33094620D01*
X92285589Y-33064624D01*
X92323937Y-32784133D01*
X92443333Y-32612667D01*
X92634863Y-32471542D01*
X92821186Y-32469340D01*
X93051177Y-32606543D01*
G36*
X100767407Y-31985500D02*
X101001493Y-32053743D01*
X101165537Y-32140885D01*
X101235409Y-32234155D01*
X101186981Y-32320784D01*
X100999271Y-32387379D01*
X100793332Y-32477829D01*
X100648470Y-32627446D01*
X100598702Y-32788715D01*
X100641957Y-32886491D01*
X100778618Y-32938821D01*
X100996380Y-32890104D01*
X101310115Y-32734981D01*
X101653320Y-32522063D01*
X102212207Y-32233857D01*
X102766905Y-32111477D01*
X103332940Y-32152565D01*
X103602824Y-32226183D01*
X103960470Y-32369542D01*
X104254696Y-32554944D01*
X104530536Y-32818300D01*
X104833023Y-33195526D01*
X104854066Y-33224009D01*
X105065206Y-33540858D01*
X105166264Y-33763055D01*
X105156513Y-33881829D01*
X105035225Y-33888410D01*
X104904552Y-33832748D01*
X104689804Y-33745726D01*
X104527900Y-33713855D01*
X104376503Y-33675265D01*
X104135855Y-33575642D01*
X103911850Y-33464510D01*
X103596538Y-33320886D01*
X103338999Y-33278206D01*
X103099366Y-33346456D01*
X102837773Y-33535628D01*
X102565648Y-33801801D01*
X102346054Y-34023608D01*
X102182645Y-34149092D01*
X102016017Y-34205671D01*
X101786765Y-34220767D01*
X101656736Y-34221333D01*
X101343963Y-34240395D01*
X101196093Y-34297308D01*
X101213074Y-34391660D01*
X101394855Y-34523043D01*
X101714333Y-34679233D01*
X101729954Y-34747917D01*
X101672000Y-34806258D01*
X101455852Y-34873713D01*
X101095986Y-34878331D01*
X100605958Y-34820030D01*
X100563117Y-34812913D01*
X99978983Y-34638164D01*
X99390651Y-34306779D01*
X99359958Y-34285385D01*
X99168447Y-34181964D01*
X99067780Y-34180795D01*
X99082615Y-34262924D01*
X99217931Y-34394574D01*
X99428333Y-34556235D01*
X99172005Y-34558117D01*
X98853840Y-34495502D01*
X98570360Y-34327685D01*
X98366046Y-34091772D01*
X98285381Y-33824870D01*
X98285333Y-33818445D01*
X98258834Y-33674512D01*
X98152766Y-33660483D01*
X98116000Y-33671000D01*
X97981952Y-33680081D01*
X97946667Y-33638920D01*
X98020054Y-33568321D01*
X98146821Y-33501667D01*
X98539333Y-33501667D01*
X98581667Y-33544000D01*
X98624000Y-33501667D01*
X98581667Y-33459333D01*
X98539333Y-33501667D01*
X98146821Y-33501667D01*
X98211960Y-33467417D01*
X98319378Y-33423581D01*
X98790190Y-33423581D01*
X98853803Y-33426677D01*
X98920333Y-33414228D01*
X99141301Y-33335833D01*
X99415048Y-33196328D01*
X99548682Y-33114117D01*
X99822303Y-32944514D01*
X99980580Y-32879257D01*
X100039676Y-32916017D01*
X100017645Y-33046570D01*
X100021948Y-33232986D01*
X100175617Y-33342381D01*
X100423884Y-33373370D01*
X100582902Y-33387193D01*
X100602221Y-33452284D01*
X100551094Y-33544946D01*
X100398525Y-33703574D01*
X100282584Y-33766695D01*
X100171838Y-33815763D01*
X100218259Y-33872029D01*
X100261208Y-33896956D01*
X100396615Y-33997527D01*
X100386079Y-34054285D01*
X100248897Y-34060439D01*
X100004363Y-34009197D01*
X99970315Y-33999343D01*
X99722103Y-33934614D01*
X99547638Y-33905871D01*
X99498358Y-33911420D01*
X99546320Y-33963643D01*
X99706347Y-34060643D01*
X99934706Y-34180860D01*
X100187663Y-34302732D01*
X100421484Y-34404699D01*
X100592436Y-34465202D01*
X100637812Y-34473170D01*
X100703517Y-34440971D01*
X100660876Y-34315340D01*
X100652459Y-34299384D01*
X100595242Y-34114223D01*
X100602791Y-34007477D01*
X100732501Y-33863879D01*
X100982316Y-33727609D01*
X101303782Y-33622159D01*
X101463259Y-33590330D01*
X101671495Y-33560730D01*
X101733068Y-33570953D01*
X101668402Y-33633335D01*
X101608500Y-33678065D01*
X101448082Y-33829397D01*
X101446006Y-33926903D01*
X101601845Y-33966608D01*
X101639517Y-33967333D01*
X101846205Y-33903195D01*
X102129873Y-33706809D01*
X102355254Y-33509772D01*
X102688572Y-33228286D01*
X102963055Y-33063058D01*
X103182535Y-32995941D01*
X103619831Y-32992065D01*
X104071830Y-33102736D01*
X104381333Y-33258647D01*
X104456165Y-33293025D01*
X104410158Y-33216362D01*
X104254333Y-33042101D01*
X103904979Y-32717176D01*
X103572365Y-32520764D01*
X103203181Y-32427213D01*
X102940216Y-32409753D01*
X102722645Y-32409315D01*
X102552304Y-32428999D01*
X102391257Y-32486127D01*
X102201566Y-32598021D01*
X101945295Y-32782001D01*
X101672000Y-32988807D01*
X101273823Y-33213324D01*
X100889977Y-33276716D01*
X100533927Y-33178926D01*
X100288138Y-32994710D01*
X100178243Y-32860579D01*
X100168060Y-32738120D01*
X100265108Y-32575498D01*
X100367193Y-32449829D01*
X100586386Y-32189333D01*
X100373689Y-32189333D01*
X100147780Y-32254404D01*
X99894593Y-32418669D01*
X99673276Y-32635708D01*
X99551406Y-32834661D01*
X99436869Y-32984453D01*
X99224695Y-33154974D01*
X99071862Y-33248113D01*
X98859673Y-33367572D01*
X98790190Y-33423581D01*
X98319378Y-33423581D01*
X98466203Y-33363664D01*
X98754849Y-33249637D01*
X98934016Y-33140117D01*
X99055914Y-32989292D01*
X99172748Y-32751351D01*
X99178303Y-32738811D01*
X99414114Y-32342974D01*
X99718172Y-32091742D01*
X100114898Y-31966153D01*
X100185623Y-31956786D01*
X100487407Y-31948924D01*
X100767407Y-31985500D01*
X100767407Y-31985500D01*
G37*
X100767407Y-31985500D02*
X101001493Y-32053743D01*
X101165537Y-32140885D01*
X101235409Y-32234155D01*
X101186981Y-32320784D01*
X100999271Y-32387379D01*
X100793332Y-32477829D01*
X100648470Y-32627446D01*
X100598702Y-32788715D01*
X100641957Y-32886491D01*
X100778618Y-32938821D01*
X100996380Y-32890104D01*
X101310115Y-32734981D01*
X101653320Y-32522063D01*
X102212207Y-32233857D01*
X102766905Y-32111477D01*
X103332940Y-32152565D01*
X103602824Y-32226183D01*
X103960470Y-32369542D01*
X104254696Y-32554944D01*
X104530536Y-32818300D01*
X104833023Y-33195526D01*
X104854066Y-33224009D01*
X105065206Y-33540858D01*
X105166264Y-33763055D01*
X105156513Y-33881829D01*
X105035225Y-33888410D01*
X104904552Y-33832748D01*
X104689804Y-33745726D01*
X104527900Y-33713855D01*
X104376503Y-33675265D01*
X104135855Y-33575642D01*
X103911850Y-33464510D01*
X103596538Y-33320886D01*
X103338999Y-33278206D01*
X103099366Y-33346456D01*
X102837773Y-33535628D01*
X102565648Y-33801801D01*
X102346054Y-34023608D01*
X102182645Y-34149092D01*
X102016017Y-34205671D01*
X101786765Y-34220767D01*
X101656736Y-34221333D01*
X101343963Y-34240395D01*
X101196093Y-34297308D01*
X101213074Y-34391660D01*
X101394855Y-34523043D01*
X101714333Y-34679233D01*
X101729954Y-34747917D01*
X101672000Y-34806258D01*
X101455852Y-34873713D01*
X101095986Y-34878331D01*
X100605958Y-34820030D01*
X100563117Y-34812913D01*
X99978983Y-34638164D01*
X99390651Y-34306779D01*
X99359958Y-34285385D01*
X99168447Y-34181964D01*
X99067780Y-34180795D01*
X99082615Y-34262924D01*
X99217931Y-34394574D01*
X99428333Y-34556235D01*
X99172005Y-34558117D01*
X98853840Y-34495502D01*
X98570360Y-34327685D01*
X98366046Y-34091772D01*
X98285381Y-33824870D01*
X98285333Y-33818445D01*
X98258834Y-33674512D01*
X98152766Y-33660483D01*
X98116000Y-33671000D01*
X97981952Y-33680081D01*
X97946667Y-33638920D01*
X98020054Y-33568321D01*
X98146821Y-33501667D01*
X98539333Y-33501667D01*
X98581667Y-33544000D01*
X98624000Y-33501667D01*
X98581667Y-33459333D01*
X98539333Y-33501667D01*
X98146821Y-33501667D01*
X98211960Y-33467417D01*
X98319378Y-33423581D01*
X98790190Y-33423581D01*
X98853803Y-33426677D01*
X98920333Y-33414228D01*
X99141301Y-33335833D01*
X99415048Y-33196328D01*
X99548682Y-33114117D01*
X99822303Y-32944514D01*
X99980580Y-32879257D01*
X100039676Y-32916017D01*
X100017645Y-33046570D01*
X100021948Y-33232986D01*
X100175617Y-33342381D01*
X100423884Y-33373370D01*
X100582902Y-33387193D01*
X100602221Y-33452284D01*
X100551094Y-33544946D01*
X100398525Y-33703574D01*
X100282584Y-33766695D01*
X100171838Y-33815763D01*
X100218259Y-33872029D01*
X100261208Y-33896956D01*
X100396615Y-33997527D01*
X100386079Y-34054285D01*
X100248897Y-34060439D01*
X100004363Y-34009197D01*
X99970315Y-33999343D01*
X99722103Y-33934614D01*
X99547638Y-33905871D01*
X99498358Y-33911420D01*
X99546320Y-33963643D01*
X99706347Y-34060643D01*
X99934706Y-34180860D01*
X100187663Y-34302732D01*
X100421484Y-34404699D01*
X100592436Y-34465202D01*
X100637812Y-34473170D01*
X100703517Y-34440971D01*
X100660876Y-34315340D01*
X100652459Y-34299384D01*
X100595242Y-34114223D01*
X100602791Y-34007477D01*
X100732501Y-33863879D01*
X100982316Y-33727609D01*
X101303782Y-33622159D01*
X101463259Y-33590330D01*
X101671495Y-33560730D01*
X101733068Y-33570953D01*
X101668402Y-33633335D01*
X101608500Y-33678065D01*
X101448082Y-33829397D01*
X101446006Y-33926903D01*
X101601845Y-33966608D01*
X101639517Y-33967333D01*
X101846205Y-33903195D01*
X102129873Y-33706809D01*
X102355254Y-33509772D01*
X102688572Y-33228286D01*
X102963055Y-33063058D01*
X103182535Y-32995941D01*
X103619831Y-32992065D01*
X104071830Y-33102736D01*
X104381333Y-33258647D01*
X104456165Y-33293025D01*
X104410158Y-33216362D01*
X104254333Y-33042101D01*
X103904979Y-32717176D01*
X103572365Y-32520764D01*
X103203181Y-32427213D01*
X102940216Y-32409753D01*
X102722645Y-32409315D01*
X102552304Y-32428999D01*
X102391257Y-32486127D01*
X102201566Y-32598021D01*
X101945295Y-32782001D01*
X101672000Y-32988807D01*
X101273823Y-33213324D01*
X100889977Y-33276716D01*
X100533927Y-33178926D01*
X100288138Y-32994710D01*
X100178243Y-32860579D01*
X100168060Y-32738120D01*
X100265108Y-32575498D01*
X100367193Y-32449829D01*
X100586386Y-32189333D01*
X100373689Y-32189333D01*
X100147780Y-32254404D01*
X99894593Y-32418669D01*
X99673276Y-32635708D01*
X99551406Y-32834661D01*
X99436869Y-32984453D01*
X99224695Y-33154974D01*
X99071862Y-33248113D01*
X98859673Y-33367572D01*
X98790190Y-33423581D01*
X98319378Y-33423581D01*
X98466203Y-33363664D01*
X98754849Y-33249637D01*
X98934016Y-33140117D01*
X99055914Y-32989292D01*
X99172748Y-32751351D01*
X99178303Y-32738811D01*
X99414114Y-32342974D01*
X99718172Y-32091742D01*
X100114898Y-31966153D01*
X100185623Y-31956786D01*
X100487407Y-31948924D01*
X100767407Y-31985500D01*
G36*
X84729048Y-26313813D02*
X84998565Y-26408215D01*
X85291170Y-26575729D01*
X85626877Y-26828655D01*
X86025698Y-27179290D01*
X86507646Y-27639935D01*
X86738304Y-27867812D01*
X87157557Y-28281668D01*
X87478045Y-28588751D01*
X87718469Y-28804253D01*
X87897527Y-28943368D01*
X88033922Y-29021288D01*
X88146352Y-29053206D01*
X88201619Y-29056667D01*
X88434054Y-29020673D01*
X88741700Y-28907170D01*
X89142834Y-28707870D01*
X89655730Y-28414488D01*
X89771352Y-28344989D01*
X90306642Y-28104468D01*
X90831586Y-28030207D01*
X91334775Y-28119141D01*
X91804800Y-28368199D01*
X92230253Y-28774314D01*
X92440729Y-29062906D01*
X92625846Y-29383627D01*
X92784224Y-29717653D01*
X92865448Y-29941314D01*
X92935432Y-30171242D01*
X92992257Y-30263921D01*
X93064519Y-30246209D01*
X93130789Y-30190506D01*
X93268165Y-30098255D01*
X93385521Y-30133252D01*
X93425337Y-30164252D01*
X93508538Y-30279844D01*
X93534486Y-30469329D01*
X93518798Y-30715722D01*
X93473745Y-31152235D01*
X94040136Y-31374451D01*
X94330403Y-31483898D01*
X94561226Y-31562786D01*
X94685551Y-31595109D01*
X94689096Y-31595214D01*
X94760590Y-31523578D01*
X94882935Y-31332896D01*
X95035110Y-31057446D01*
X95113861Y-30902593D01*
X95274506Y-30594028D01*
X95416790Y-30349230D01*
X95518988Y-30204378D01*
X95547116Y-30181072D01*
X95619317Y-30220922D01*
X95682810Y-30398572D01*
X95739801Y-30723881D01*
X95792501Y-31206709D01*
X95802596Y-31321584D01*
X95854861Y-31935501D01*
X96159931Y-32017647D01*
X96380473Y-32073129D01*
X96529456Y-32103638D01*
X96542899Y-32105128D01*
X96586198Y-32028741D01*
X96652804Y-31815004D01*
X96734943Y-31493026D01*
X96824841Y-31091914D01*
X96863388Y-30905131D01*
X96952008Y-30475018D01*
X97031698Y-30107135D01*
X97095551Y-29831978D01*
X97136659Y-29680040D01*
X97145322Y-29660455D01*
X97217013Y-29668011D01*
X97284134Y-29818096D01*
X97342688Y-30083907D01*
X97388678Y-30438641D01*
X97418106Y-30855495D01*
X97426977Y-31307666D01*
X97422984Y-31522348D01*
X97412997Y-31907450D01*
X97416065Y-32155925D01*
X97437761Y-32300318D01*
X97483654Y-32373168D01*
X97559316Y-32407020D01*
X97575139Y-32411137D01*
X97655417Y-32444467D01*
X97710480Y-32517558D01*
X97747823Y-32661569D01*
X97774944Y-32907659D01*
X97799339Y-33286987D01*
X97803360Y-33359743D01*
X97829077Y-33753214D01*
X97859358Y-34099368D01*
X97889846Y-34353218D01*
X97909201Y-34452658D01*
X97918661Y-34601682D01*
X97809989Y-34703029D01*
X97723313Y-34743336D01*
X97546702Y-34780599D01*
X97233056Y-34810418D01*
X96814522Y-34832435D01*
X96323251Y-34846289D01*
X95791392Y-34851621D01*
X95251093Y-34848071D01*
X94734505Y-34835278D01*
X94273776Y-34812884D01*
X93946167Y-34785609D01*
X93290000Y-34714886D01*
X93290000Y-35056940D01*
X93292953Y-35197824D01*
X93316863Y-35302256D01*
X93384301Y-35376906D01*
X93517841Y-35428444D01*
X93740056Y-35463544D01*
X94073518Y-35488875D01*
X94540801Y-35511108D01*
X94873257Y-35524853D01*
X95357312Y-35550462D01*
X95722000Y-35586985D01*
X96017271Y-35642933D01*
X96293075Y-35726814D01*
X96481924Y-35798878D01*
X96813754Y-35922926D01*
X97126035Y-36023781D01*
X97347046Y-36078739D01*
X97552212Y-36141006D01*
X97669316Y-36229131D01*
X97674042Y-36239792D01*
X97660098Y-36298478D01*
X97548886Y-36324755D01*
X97312444Y-36322279D01*
X97130662Y-36310839D01*
X96177468Y-36244080D01*
X95368802Y-36192259D01*
X94680553Y-36154985D01*
X94088611Y-36131869D01*
X93568865Y-36122522D01*
X93097206Y-36126553D01*
X92649521Y-36143574D01*
X92201702Y-36173194D01*
X91729636Y-36215025D01*
X91654862Y-36222366D01*
X91162724Y-36271191D01*
X91189195Y-35903172D01*
X91215667Y-35535154D01*
X91675836Y-35469352D01*
X91931505Y-35429889D01*
X92105013Y-35397595D01*
X92150888Y-35383941D01*
X92171571Y-35296329D01*
X92205953Y-35099280D01*
X92220885Y-35004500D01*
X92276001Y-34644667D01*
X91195124Y-34644667D01*
X90983520Y-36243427D01*
X89998927Y-36275631D01*
X89484330Y-36287771D01*
X88874479Y-36294478D01*
X88195326Y-36296156D01*
X87472824Y-36293207D01*
X86732926Y-36286037D01*
X86001587Y-36275049D01*
X85304758Y-36260645D01*
X84668394Y-36243230D01*
X84118447Y-36223208D01*
X83680871Y-36200981D01*
X83381619Y-36176954D01*
X83341667Y-36172103D01*
X82994656Y-36130956D01*
X82776521Y-36121216D01*
X82649396Y-36144751D01*
X82575420Y-36203428D01*
X82570333Y-36210147D01*
X82409869Y-36303812D01*
X82159571Y-36328041D01*
X81885699Y-36279030D01*
X81817667Y-36253333D01*
X81610009Y-36198769D01*
X81376145Y-36174617D01*
X81216446Y-36158685D01*
X81097611Y-36105089D01*
X81015149Y-35993219D01*
X80964565Y-35802464D01*
X80941368Y-35512213D01*
X80941107Y-35160402D01*
X81423408Y-35160402D01*
X81430436Y-35480677D01*
X81447105Y-35671840D01*
X81460792Y-35713014D01*
X81567384Y-35752928D01*
X81775000Y-35794654D01*
X81843112Y-35804606D01*
X82178876Y-35849641D01*
X82234891Y-34992167D01*
X82682705Y-34992167D01*
X82697839Y-35165289D01*
X82747691Y-35250696D01*
X82833667Y-35286874D01*
X83048703Y-35327516D01*
X83370881Y-35374779D01*
X83738611Y-35420990D01*
X84090306Y-35458475D01*
X84364376Y-35479559D01*
X84388447Y-35480597D01*
X84673227Y-35491333D01*
X84661392Y-35406667D01*
X86093333Y-35406667D01*
X86664833Y-35411546D01*
X87021830Y-35424283D01*
X87365190Y-35452347D01*
X87575000Y-35481882D01*
X87860803Y-35519855D01*
X88212493Y-35543819D01*
X88399223Y-35548026D01*
X88673594Y-35543912D01*
X88823771Y-35515604D01*
X88894885Y-35440648D01*
X88932066Y-35296590D01*
X88934908Y-35281502D01*
X88962579Y-34996998D01*
X88957352Y-34723645D01*
X88932885Y-34556698D01*
X88871056Y-34463966D01*
X88727994Y-34414806D01*
X88464000Y-34379061D01*
X88180708Y-34351236D01*
X87787984Y-34319200D01*
X87345495Y-34287598D01*
X87045833Y-34268680D01*
X86093333Y-34212237D01*
X86093333Y-35406667D01*
X84661392Y-35406667D01*
X84617006Y-35089167D01*
X84571616Y-34778586D01*
X84525954Y-34487261D01*
X84513304Y-34411833D01*
X84465821Y-34136667D01*
X82721115Y-34136667D01*
X82692724Y-34690880D01*
X82682705Y-34992167D01*
X82234891Y-34992167D01*
X82240582Y-34905057D01*
X82274682Y-34426769D01*
X82321510Y-34093275D01*
X82407349Y-33880577D01*
X82558482Y-33764680D01*
X82801191Y-33721588D01*
X83161759Y-33727303D01*
X83507789Y-33748085D01*
X83987752Y-33775311D01*
X84557483Y-33803295D01*
X85137477Y-33828319D01*
X85543000Y-33843295D01*
X86014503Y-33862268D01*
X86546579Y-33889068D01*
X87107748Y-33921535D01*
X87666533Y-33957508D01*
X88191454Y-33994827D01*
X88651033Y-34031331D01*
X89013793Y-34064859D01*
X89248254Y-34093251D01*
X89288609Y-34100390D01*
X89372594Y-34124408D01*
X89424848Y-34175660D01*
X89449960Y-34285592D01*
X89452521Y-34485648D01*
X89437125Y-34807273D01*
X89423909Y-35027056D01*
X89369600Y-35914667D01*
X90643454Y-35914667D01*
X90702228Y-35300833D01*
X90738490Y-34898990D01*
X90775802Y-34622298D01*
X90842576Y-34447618D01*
X90967221Y-34351811D01*
X91178148Y-34311737D01*
X91503767Y-34304257D01*
X91923345Y-34306270D01*
X92420241Y-34316786D01*
X92938795Y-34345052D01*
X93411082Y-34386502D01*
X93713333Y-34426647D01*
X94383107Y-34518182D01*
X95077283Y-34577358D01*
X95749772Y-34602567D01*
X96354484Y-34592199D01*
X96845329Y-34544648D01*
X96888333Y-34537441D01*
X97481000Y-34433000D01*
X97455323Y-34009667D01*
X97419431Y-33674092D01*
X97360355Y-33341905D01*
X97337321Y-33247667D01*
X97303982Y-33039632D01*
X97276601Y-32704048D01*
X97257531Y-32282662D01*
X97249126Y-31817218D01*
X97249015Y-31681333D01*
X97253033Y-30453667D01*
X97080791Y-31336402D01*
X97002867Y-31766310D01*
X96965450Y-32062169D01*
X96966359Y-32253796D01*
X97003416Y-32371007D01*
X97004991Y-32373569D01*
X97048719Y-32488415D01*
X96979407Y-32527144D01*
X96783258Y-32490518D01*
X96507333Y-32401000D01*
X96236820Y-32321488D01*
X95998626Y-32277248D01*
X95943698Y-32274000D01*
X95830746Y-32266182D01*
X95754065Y-32222741D01*
X95702486Y-32113697D01*
X95664840Y-31909067D01*
X95629957Y-31578872D01*
X95612511Y-31385000D01*
X95552534Y-30707667D01*
X95353690Y-31131000D01*
X95216997Y-31444476D01*
X95165129Y-31637698D01*
X95196916Y-31736283D01*
X95311185Y-31765848D01*
X95324657Y-31766000D01*
X95472423Y-31820174D01*
X95566966Y-31939917D01*
X95561225Y-32061058D01*
X95550404Y-32073818D01*
X95442357Y-32078109D01*
X95205385Y-32028344D01*
X94868006Y-31932810D01*
X94458737Y-31799792D01*
X94006093Y-31637574D01*
X93866012Y-31584418D01*
X93214357Y-31333838D01*
X93252922Y-30893752D01*
X93271864Y-30649555D01*
X93268123Y-30557453D01*
X93236474Y-30601111D01*
X93193381Y-30707667D01*
X93097040Y-30904821D01*
X93002590Y-31023566D01*
X93002138Y-31023870D01*
X92830755Y-31085383D01*
X92716553Y-31033648D01*
X92697333Y-30961667D01*
X92629560Y-30849418D01*
X92570333Y-30834667D01*
X92477302Y-30897525D01*
X92443763Y-31099481D01*
X92443333Y-31137208D01*
X92426792Y-31340071D01*
X92363490Y-31413654D01*
X92295167Y-31411681D01*
X92168383Y-31315597D01*
X92119261Y-31124669D01*
X92137653Y-30888837D01*
X92213410Y-30658045D01*
X92336384Y-30482233D01*
X92496427Y-30411343D01*
X92498439Y-30411333D01*
X92580368Y-30382890D01*
X92602451Y-30270159D01*
X92576780Y-30051500D01*
X92441884Y-29593787D01*
X92205741Y-29180694D01*
X91893465Y-28828002D01*
X91530166Y-28551491D01*
X91140956Y-28366940D01*
X90750948Y-28290130D01*
X90385252Y-28336842D01*
X90100329Y-28495297D01*
X89859684Y-28665282D01*
X89532679Y-28854833D01*
X89163208Y-29043153D01*
X88795168Y-29209444D01*
X88472454Y-29332909D01*
X88238962Y-29392749D01*
X88200706Y-29395333D01*
X88005101Y-29373004D01*
X87797940Y-29297057D01*
X87561323Y-29154054D01*
X87277352Y-28930557D01*
X86928128Y-28613126D01*
X86495753Y-28188324D01*
X86220333Y-27908468D01*
X85856246Y-27543623D01*
X85516314Y-27217960D01*
X85223997Y-26952808D01*
X85002758Y-26769497D01*
X84881321Y-26691147D01*
X84441105Y-26606070D01*
X83963500Y-26647795D01*
X83553759Y-26791833D01*
X83195171Y-27055774D01*
X82846558Y-27466117D01*
X82519885Y-27999946D01*
X82227119Y-28634341D01*
X81980226Y-29346384D01*
X81791172Y-30113156D01*
X81774457Y-30199667D01*
X81716267Y-30497200D01*
X81664247Y-30742595D01*
X81636797Y-30855833D01*
X81654052Y-30977397D01*
X81765263Y-31018369D01*
X81919335Y-30985531D01*
X82065176Y-30885668D01*
X82130330Y-30790303D01*
X82304689Y-30589471D01*
X82560333Y-30511351D01*
X82839910Y-30568106D01*
X82948592Y-30632177D01*
X83010336Y-30728913D01*
X83038204Y-30901689D01*
X83045262Y-31193879D01*
X83045333Y-31250137D01*
X83024799Y-31658500D01*
X82963018Y-31904148D01*
X82926022Y-31957883D01*
X82818836Y-32135746D01*
X82777855Y-32281430D01*
X82732518Y-32416040D01*
X82613598Y-32483170D01*
X82399441Y-32511199D01*
X82172744Y-32515809D01*
X82058391Y-32468354D01*
X82001421Y-32342903D01*
X81995661Y-32320699D01*
X81899864Y-32148033D01*
X81742265Y-32104667D01*
X81657260Y-32111433D01*
X81598574Y-32150692D01*
X81558900Y-32250882D01*
X81530931Y-32440443D01*
X81507361Y-32747814D01*
X81486656Y-33099500D01*
X81457647Y-33680566D01*
X81437267Y-34234782D01*
X81425769Y-34736582D01*
X81423408Y-35160402D01*
X80941107Y-35160402D01*
X80941063Y-35101855D01*
X80959159Y-34550779D01*
X80969521Y-34309281D01*
X80999787Y-33634003D01*
X81022661Y-33108925D01*
X81037093Y-32715028D01*
X81042032Y-32433297D01*
X81036427Y-32244716D01*
X81019226Y-32130268D01*
X80989380Y-32070938D01*
X80945836Y-32047709D01*
X80887545Y-32041564D01*
X80844000Y-32038048D01*
X80710114Y-32039034D01*
X80644202Y-32111521D01*
X80616498Y-32298604D01*
X80611706Y-32374384D01*
X80508066Y-32809730D01*
X80269650Y-33224695D01*
X79930599Y-33587068D01*
X79525055Y-33864636D01*
X79087162Y-34025188D01*
X78833539Y-34052000D01*
X78421936Y-33984898D01*
X78028269Y-33803203D01*
X77687007Y-33536332D01*
X77432618Y-33213702D01*
X77299573Y-32864728D01*
X77288000Y-32733011D01*
X77226486Y-32436107D01*
X77034558Y-32239917D01*
X76776872Y-32146313D01*
X76630860Y-32106184D01*
X76556388Y-32037954D01*
X76533429Y-31895682D01*
X76540396Y-31681333D01*
X77034000Y-31681333D01*
X77088841Y-31820782D01*
X77165204Y-31850667D01*
X77328790Y-31887942D01*
X77542551Y-31977975D01*
X77549330Y-31981457D01*
X77720425Y-32093198D01*
X77769868Y-32227474D01*
X77749937Y-32391103D01*
X77759024Y-32763439D01*
X77905092Y-33110820D01*
X78156885Y-33395372D01*
X78483146Y-33579219D01*
X78770987Y-33628350D01*
X79019376Y-33587683D01*
X79290071Y-33487774D01*
X79321321Y-33471865D01*
X79547497Y-33310133D01*
X79791073Y-33075081D01*
X79901502Y-32944168D01*
X80061320Y-32722636D01*
X80139814Y-32547646D01*
X80156608Y-32345853D01*
X80134436Y-32073510D01*
X80082200Y-31573746D01*
X81140433Y-31634034D01*
X81578819Y-31657756D01*
X81875717Y-31667994D01*
X82058638Y-31661937D01*
X82155093Y-31636775D01*
X82192590Y-31589697D01*
X82198667Y-31525922D01*
X82186304Y-31454065D01*
X82130680Y-31402987D01*
X82003986Y-31366435D01*
X81778416Y-31338152D01*
X81426164Y-31311884D01*
X81179729Y-31296707D01*
X80730895Y-31268742D01*
X80420477Y-31235263D01*
X80218089Y-31177324D01*
X80093349Y-31075980D01*
X80015872Y-30912285D01*
X79955274Y-30667292D01*
X79922770Y-30512936D01*
X79842200Y-30201622D01*
X79744489Y-29917149D01*
X79696876Y-29810691D01*
X79489923Y-29548500D01*
X79198146Y-29341475D01*
X78888105Y-29233094D01*
X78802251Y-29226316D01*
X78504176Y-29305665D01*
X78229456Y-29525211D01*
X77996122Y-29855901D01*
X77822204Y-30268683D01*
X77725732Y-30734506D01*
X77712160Y-30982833D01*
X77711333Y-31512000D01*
X77372667Y-31512000D01*
X77151098Y-31526200D01*
X77053174Y-31583594D01*
X77034000Y-31681333D01*
X76540396Y-31681333D01*
X76541954Y-31633425D01*
X76543168Y-31610228D01*
X76568333Y-31131000D01*
X76928167Y-31104965D01*
X77170711Y-31067978D01*
X77276583Y-30993991D01*
X77288000Y-30940001D01*
X77311744Y-30798499D01*
X77374972Y-30542894D01*
X77465681Y-30220400D01*
X77500239Y-30105246D01*
X77694727Y-29594208D01*
X77925903Y-29233954D01*
X78207119Y-29007551D01*
X78433627Y-28921442D01*
X78650968Y-28921923D01*
X78958138Y-28987384D01*
X79298223Y-29098303D01*
X79614308Y-29235159D01*
X79849480Y-29378431D01*
X79900294Y-29424497D01*
X80068505Y-29681889D01*
X80222232Y-30061860D01*
X80343907Y-30517680D01*
X80376415Y-30690948D01*
X80430008Y-31012896D01*
X80823327Y-30987281D01*
X81216646Y-30961667D01*
X81359763Y-30242000D01*
X81605933Y-29253564D01*
X81926541Y-28376658D01*
X82314358Y-27628057D01*
X82730775Y-27059706D01*
X83161147Y-26663749D01*
X83640396Y-26415046D01*
X84179230Y-26295152D01*
X84462608Y-26280225D01*
X84729048Y-26313813D01*
X84729048Y-26313813D01*
G37*
X84729048Y-26313813D02*
X84998565Y-26408215D01*
X85291170Y-26575729D01*
X85626877Y-26828655D01*
X86025698Y-27179290D01*
X86507646Y-27639935D01*
X86738304Y-27867812D01*
X87157557Y-28281668D01*
X87478045Y-28588751D01*
X87718469Y-28804253D01*
X87897527Y-28943368D01*
X88033922Y-29021288D01*
X88146352Y-29053206D01*
X88201619Y-29056667D01*
X88434054Y-29020673D01*
X88741700Y-28907170D01*
X89142834Y-28707870D01*
X89655730Y-28414488D01*
X89771352Y-28344989D01*
X90306642Y-28104468D01*
X90831586Y-28030207D01*
X91334775Y-28119141D01*
X91804800Y-28368199D01*
X92230253Y-28774314D01*
X92440729Y-29062906D01*
X92625846Y-29383627D01*
X92784224Y-29717653D01*
X92865448Y-29941314D01*
X92935432Y-30171242D01*
X92992257Y-30263921D01*
X93064519Y-30246209D01*
X93130789Y-30190506D01*
X93268165Y-30098255D01*
X93385521Y-30133252D01*
X93425337Y-30164252D01*
X93508538Y-30279844D01*
X93534486Y-30469329D01*
X93518798Y-30715722D01*
X93473745Y-31152235D01*
X94040136Y-31374451D01*
X94330403Y-31483898D01*
X94561226Y-31562786D01*
X94685551Y-31595109D01*
X94689096Y-31595214D01*
X94760590Y-31523578D01*
X94882935Y-31332896D01*
X95035110Y-31057446D01*
X95113861Y-30902593D01*
X95274506Y-30594028D01*
X95416790Y-30349230D01*
X95518988Y-30204378D01*
X95547116Y-30181072D01*
X95619317Y-30220922D01*
X95682810Y-30398572D01*
X95739801Y-30723881D01*
X95792501Y-31206709D01*
X95802596Y-31321584D01*
X95854861Y-31935501D01*
X96159931Y-32017647D01*
X96380473Y-32073129D01*
X96529456Y-32103638D01*
X96542899Y-32105128D01*
X96586198Y-32028741D01*
X96652804Y-31815004D01*
X96734943Y-31493026D01*
X96824841Y-31091914D01*
X96863388Y-30905131D01*
X96952008Y-30475018D01*
X97031698Y-30107135D01*
X97095551Y-29831978D01*
X97136659Y-29680040D01*
X97145322Y-29660455D01*
X97217013Y-29668011D01*
X97284134Y-29818096D01*
X97342688Y-30083907D01*
X97388678Y-30438641D01*
X97418106Y-30855495D01*
X97426977Y-31307666D01*
X97422984Y-31522348D01*
X97412997Y-31907450D01*
X97416065Y-32155925D01*
X97437761Y-32300318D01*
X97483654Y-32373168D01*
X97559316Y-32407020D01*
X97575139Y-32411137D01*
X97655417Y-32444467D01*
X97710480Y-32517558D01*
X97747823Y-32661569D01*
X97774944Y-32907659D01*
X97799339Y-33286987D01*
X97803360Y-33359743D01*
X97829077Y-33753214D01*
X97859358Y-34099368D01*
X97889846Y-34353218D01*
X97909201Y-34452658D01*
X97918661Y-34601682D01*
X97809989Y-34703029D01*
X97723313Y-34743336D01*
X97546702Y-34780599D01*
X97233056Y-34810418D01*
X96814522Y-34832435D01*
X96323251Y-34846289D01*
X95791392Y-34851621D01*
X95251093Y-34848071D01*
X94734505Y-34835278D01*
X94273776Y-34812884D01*
X93946167Y-34785609D01*
X93290000Y-34714886D01*
X93290000Y-35056940D01*
X93292953Y-35197824D01*
X93316863Y-35302256D01*
X93384301Y-35376906D01*
X93517841Y-35428444D01*
X93740056Y-35463544D01*
X94073518Y-35488875D01*
X94540801Y-35511108D01*
X94873257Y-35524853D01*
X95357312Y-35550462D01*
X95722000Y-35586985D01*
X96017271Y-35642933D01*
X96293075Y-35726814D01*
X96481924Y-35798878D01*
X96813754Y-35922926D01*
X97126035Y-36023781D01*
X97347046Y-36078739D01*
X97552212Y-36141006D01*
X97669316Y-36229131D01*
X97674042Y-36239792D01*
X97660098Y-36298478D01*
X97548886Y-36324755D01*
X97312444Y-36322279D01*
X97130662Y-36310839D01*
X96177468Y-36244080D01*
X95368802Y-36192259D01*
X94680553Y-36154985D01*
X94088611Y-36131869D01*
X93568865Y-36122522D01*
X93097206Y-36126553D01*
X92649521Y-36143574D01*
X92201702Y-36173194D01*
X91729636Y-36215025D01*
X91654862Y-36222366D01*
X91162724Y-36271191D01*
X91189195Y-35903172D01*
X91215667Y-35535154D01*
X91675836Y-35469352D01*
X91931505Y-35429889D01*
X92105013Y-35397595D01*
X92150888Y-35383941D01*
X92171571Y-35296329D01*
X92205953Y-35099280D01*
X92220885Y-35004500D01*
X92276001Y-34644667D01*
X91195124Y-34644667D01*
X90983520Y-36243427D01*
X89998927Y-36275631D01*
X89484330Y-36287771D01*
X88874479Y-36294478D01*
X88195326Y-36296156D01*
X87472824Y-36293207D01*
X86732926Y-36286037D01*
X86001587Y-36275049D01*
X85304758Y-36260645D01*
X84668394Y-36243230D01*
X84118447Y-36223208D01*
X83680871Y-36200981D01*
X83381619Y-36176954D01*
X83341667Y-36172103D01*
X82994656Y-36130956D01*
X82776521Y-36121216D01*
X82649396Y-36144751D01*
X82575420Y-36203428D01*
X82570333Y-36210147D01*
X82409869Y-36303812D01*
X82159571Y-36328041D01*
X81885699Y-36279030D01*
X81817667Y-36253333D01*
X81610009Y-36198769D01*
X81376145Y-36174617D01*
X81216446Y-36158685D01*
X81097611Y-36105089D01*
X81015149Y-35993219D01*
X80964565Y-35802464D01*
X80941368Y-35512213D01*
X80941107Y-35160402D01*
X81423408Y-35160402D01*
X81430436Y-35480677D01*
X81447105Y-35671840D01*
X81460792Y-35713014D01*
X81567384Y-35752928D01*
X81775000Y-35794654D01*
X81843112Y-35804606D01*
X82178876Y-35849641D01*
X82234891Y-34992167D01*
X82682705Y-34992167D01*
X82697839Y-35165289D01*
X82747691Y-35250696D01*
X82833667Y-35286874D01*
X83048703Y-35327516D01*
X83370881Y-35374779D01*
X83738611Y-35420990D01*
X84090306Y-35458475D01*
X84364376Y-35479559D01*
X84388447Y-35480597D01*
X84673227Y-35491333D01*
X84661392Y-35406667D01*
X86093333Y-35406667D01*
X86664833Y-35411546D01*
X87021830Y-35424283D01*
X87365190Y-35452347D01*
X87575000Y-35481882D01*
X87860803Y-35519855D01*
X88212493Y-35543819D01*
X88399223Y-35548026D01*
X88673594Y-35543912D01*
X88823771Y-35515604D01*
X88894885Y-35440648D01*
X88932066Y-35296590D01*
X88934908Y-35281502D01*
X88962579Y-34996998D01*
X88957352Y-34723645D01*
X88932885Y-34556698D01*
X88871056Y-34463966D01*
X88727994Y-34414806D01*
X88464000Y-34379061D01*
X88180708Y-34351236D01*
X87787984Y-34319200D01*
X87345495Y-34287598D01*
X87045833Y-34268680D01*
X86093333Y-34212237D01*
X86093333Y-35406667D01*
X84661392Y-35406667D01*
X84617006Y-35089167D01*
X84571616Y-34778586D01*
X84525954Y-34487261D01*
X84513304Y-34411833D01*
X84465821Y-34136667D01*
X82721115Y-34136667D01*
X82692724Y-34690880D01*
X82682705Y-34992167D01*
X82234891Y-34992167D01*
X82240582Y-34905057D01*
X82274682Y-34426769D01*
X82321510Y-34093275D01*
X82407349Y-33880577D01*
X82558482Y-33764680D01*
X82801191Y-33721588D01*
X83161759Y-33727303D01*
X83507789Y-33748085D01*
X83987752Y-33775311D01*
X84557483Y-33803295D01*
X85137477Y-33828319D01*
X85543000Y-33843295D01*
X86014503Y-33862268D01*
X86546579Y-33889068D01*
X87107748Y-33921535D01*
X87666533Y-33957508D01*
X88191454Y-33994827D01*
X88651033Y-34031331D01*
X89013793Y-34064859D01*
X89248254Y-34093251D01*
X89288609Y-34100390D01*
X89372594Y-34124408D01*
X89424848Y-34175660D01*
X89449960Y-34285592D01*
X89452521Y-34485648D01*
X89437125Y-34807273D01*
X89423909Y-35027056D01*
X89369600Y-35914667D01*
X90643454Y-35914667D01*
X90702228Y-35300833D01*
X90738490Y-34898990D01*
X90775802Y-34622298D01*
X90842576Y-34447618D01*
X90967221Y-34351811D01*
X91178148Y-34311737D01*
X91503767Y-34304257D01*
X91923345Y-34306270D01*
X92420241Y-34316786D01*
X92938795Y-34345052D01*
X93411082Y-34386502D01*
X93713333Y-34426647D01*
X94383107Y-34518182D01*
X95077283Y-34577358D01*
X95749772Y-34602567D01*
X96354484Y-34592199D01*
X96845329Y-34544648D01*
X96888333Y-34537441D01*
X97481000Y-34433000D01*
X97455323Y-34009667D01*
X97419431Y-33674092D01*
X97360355Y-33341905D01*
X97337321Y-33247667D01*
X97303982Y-33039632D01*
X97276601Y-32704048D01*
X97257531Y-32282662D01*
X97249126Y-31817218D01*
X97249015Y-31681333D01*
X97253033Y-30453667D01*
X97080791Y-31336402D01*
X97002867Y-31766310D01*
X96965450Y-32062169D01*
X96966359Y-32253796D01*
X97003416Y-32371007D01*
X97004991Y-32373569D01*
X97048719Y-32488415D01*
X96979407Y-32527144D01*
X96783258Y-32490518D01*
X96507333Y-32401000D01*
X96236820Y-32321488D01*
X95998626Y-32277248D01*
X95943698Y-32274000D01*
X95830746Y-32266182D01*
X95754065Y-32222741D01*
X95702486Y-32113697D01*
X95664840Y-31909067D01*
X95629957Y-31578872D01*
X95612511Y-31385000D01*
X95552534Y-30707667D01*
X95353690Y-31131000D01*
X95216997Y-31444476D01*
X95165129Y-31637698D01*
X95196916Y-31736283D01*
X95311185Y-31765848D01*
X95324657Y-31766000D01*
X95472423Y-31820174D01*
X95566966Y-31939917D01*
X95561225Y-32061058D01*
X95550404Y-32073818D01*
X95442357Y-32078109D01*
X95205385Y-32028344D01*
X94868006Y-31932810D01*
X94458737Y-31799792D01*
X94006093Y-31637574D01*
X93866012Y-31584418D01*
X93214357Y-31333838D01*
X93252922Y-30893752D01*
X93271864Y-30649555D01*
X93268123Y-30557453D01*
X93236474Y-30601111D01*
X93193381Y-30707667D01*
X93097040Y-30904821D01*
X93002590Y-31023566D01*
X93002138Y-31023870D01*
X92830755Y-31085383D01*
X92716553Y-31033648D01*
X92697333Y-30961667D01*
X92629560Y-30849418D01*
X92570333Y-30834667D01*
X92477302Y-30897525D01*
X92443763Y-31099481D01*
X92443333Y-31137208D01*
X92426792Y-31340071D01*
X92363490Y-31413654D01*
X92295167Y-31411681D01*
X92168383Y-31315597D01*
X92119261Y-31124669D01*
X92137653Y-30888837D01*
X92213410Y-30658045D01*
X92336384Y-30482233D01*
X92496427Y-30411343D01*
X92498439Y-30411333D01*
X92580368Y-30382890D01*
X92602451Y-30270159D01*
X92576780Y-30051500D01*
X92441884Y-29593787D01*
X92205741Y-29180694D01*
X91893465Y-28828002D01*
X91530166Y-28551491D01*
X91140956Y-28366940D01*
X90750948Y-28290130D01*
X90385252Y-28336842D01*
X90100329Y-28495297D01*
X89859684Y-28665282D01*
X89532679Y-28854833D01*
X89163208Y-29043153D01*
X88795168Y-29209444D01*
X88472454Y-29332909D01*
X88238962Y-29392749D01*
X88200706Y-29395333D01*
X88005101Y-29373004D01*
X87797940Y-29297057D01*
X87561323Y-29154054D01*
X87277352Y-28930557D01*
X86928128Y-28613126D01*
X86495753Y-28188324D01*
X86220333Y-27908468D01*
X85856246Y-27543623D01*
X85516314Y-27217960D01*
X85223997Y-26952808D01*
X85002758Y-26769497D01*
X84881321Y-26691147D01*
X84441105Y-26606070D01*
X83963500Y-26647795D01*
X83553759Y-26791833D01*
X83195171Y-27055774D01*
X82846558Y-27466117D01*
X82519885Y-27999946D01*
X82227119Y-28634341D01*
X81980226Y-29346384D01*
X81791172Y-30113156D01*
X81774457Y-30199667D01*
X81716267Y-30497200D01*
X81664247Y-30742595D01*
X81636797Y-30855833D01*
X81654052Y-30977397D01*
X81765263Y-31018369D01*
X81919335Y-30985531D01*
X82065176Y-30885668D01*
X82130330Y-30790303D01*
X82304689Y-30589471D01*
X82560333Y-30511351D01*
X82839910Y-30568106D01*
X82948592Y-30632177D01*
X83010336Y-30728913D01*
X83038204Y-30901689D01*
X83045262Y-31193879D01*
X83045333Y-31250137D01*
X83024799Y-31658500D01*
X82963018Y-31904148D01*
X82926022Y-31957883D01*
X82818836Y-32135746D01*
X82777855Y-32281430D01*
X82732518Y-32416040D01*
X82613598Y-32483170D01*
X82399441Y-32511199D01*
X82172744Y-32515809D01*
X82058391Y-32468354D01*
X82001421Y-32342903D01*
X81995661Y-32320699D01*
X81899864Y-32148033D01*
X81742265Y-32104667D01*
X81657260Y-32111433D01*
X81598574Y-32150692D01*
X81558900Y-32250882D01*
X81530931Y-32440443D01*
X81507361Y-32747814D01*
X81486656Y-33099500D01*
X81457647Y-33680566D01*
X81437267Y-34234782D01*
X81425769Y-34736582D01*
X81423408Y-35160402D01*
X80941107Y-35160402D01*
X80941063Y-35101855D01*
X80959159Y-34550779D01*
X80969521Y-34309281D01*
X80999787Y-33634003D01*
X81022661Y-33108925D01*
X81037093Y-32715028D01*
X81042032Y-32433297D01*
X81036427Y-32244716D01*
X81019226Y-32130268D01*
X80989380Y-32070938D01*
X80945836Y-32047709D01*
X80887545Y-32041564D01*
X80844000Y-32038048D01*
X80710114Y-32039034D01*
X80644202Y-32111521D01*
X80616498Y-32298604D01*
X80611706Y-32374384D01*
X80508066Y-32809730D01*
X80269650Y-33224695D01*
X79930599Y-33587068D01*
X79525055Y-33864636D01*
X79087162Y-34025188D01*
X78833539Y-34052000D01*
X78421936Y-33984898D01*
X78028269Y-33803203D01*
X77687007Y-33536332D01*
X77432618Y-33213702D01*
X77299573Y-32864728D01*
X77288000Y-32733011D01*
X77226486Y-32436107D01*
X77034558Y-32239917D01*
X76776872Y-32146313D01*
X76630860Y-32106184D01*
X76556388Y-32037954D01*
X76533429Y-31895682D01*
X76540396Y-31681333D01*
X77034000Y-31681333D01*
X77088841Y-31820782D01*
X77165204Y-31850667D01*
X77328790Y-31887942D01*
X77542551Y-31977975D01*
X77549330Y-31981457D01*
X77720425Y-32093198D01*
X77769868Y-32227474D01*
X77749937Y-32391103D01*
X77759024Y-32763439D01*
X77905092Y-33110820D01*
X78156885Y-33395372D01*
X78483146Y-33579219D01*
X78770987Y-33628350D01*
X79019376Y-33587683D01*
X79290071Y-33487774D01*
X79321321Y-33471865D01*
X79547497Y-33310133D01*
X79791073Y-33075081D01*
X79901502Y-32944168D01*
X80061320Y-32722636D01*
X80139814Y-32547646D01*
X80156608Y-32345853D01*
X80134436Y-32073510D01*
X80082200Y-31573746D01*
X81140433Y-31634034D01*
X81578819Y-31657756D01*
X81875717Y-31667994D01*
X82058638Y-31661937D01*
X82155093Y-31636775D01*
X82192590Y-31589697D01*
X82198667Y-31525922D01*
X82186304Y-31454065D01*
X82130680Y-31402987D01*
X82003986Y-31366435D01*
X81778416Y-31338152D01*
X81426164Y-31311884D01*
X81179729Y-31296707D01*
X80730895Y-31268742D01*
X80420477Y-31235263D01*
X80218089Y-31177324D01*
X80093349Y-31075980D01*
X80015872Y-30912285D01*
X79955274Y-30667292D01*
X79922770Y-30512936D01*
X79842200Y-30201622D01*
X79744489Y-29917149D01*
X79696876Y-29810691D01*
X79489923Y-29548500D01*
X79198146Y-29341475D01*
X78888105Y-29233094D01*
X78802251Y-29226316D01*
X78504176Y-29305665D01*
X78229456Y-29525211D01*
X77996122Y-29855901D01*
X77822204Y-30268683D01*
X77725732Y-30734506D01*
X77712160Y-30982833D01*
X77711333Y-31512000D01*
X77372667Y-31512000D01*
X77151098Y-31526200D01*
X77053174Y-31583594D01*
X77034000Y-31681333D01*
X76540396Y-31681333D01*
X76541954Y-31633425D01*
X76543168Y-31610228D01*
X76568333Y-31131000D01*
X76928167Y-31104965D01*
X77170711Y-31067978D01*
X77276583Y-30993991D01*
X77288000Y-30940001D01*
X77311744Y-30798499D01*
X77374972Y-30542894D01*
X77465681Y-30220400D01*
X77500239Y-30105246D01*
X77694727Y-29594208D01*
X77925903Y-29233954D01*
X78207119Y-29007551D01*
X78433627Y-28921442D01*
X78650968Y-28921923D01*
X78958138Y-28987384D01*
X79298223Y-29098303D01*
X79614308Y-29235159D01*
X79849480Y-29378431D01*
X79900294Y-29424497D01*
X80068505Y-29681889D01*
X80222232Y-30061860D01*
X80343907Y-30517680D01*
X80376415Y-30690948D01*
X80430008Y-31012896D01*
X80823327Y-30987281D01*
X81216646Y-30961667D01*
X81359763Y-30242000D01*
X81605933Y-29253564D01*
X81926541Y-28376658D01*
X82314358Y-27628057D01*
X82730775Y-27059706D01*
X83161147Y-26663749D01*
X83640396Y-26415046D01*
X84179230Y-26295152D01*
X84462608Y-26280225D01*
X84729048Y-26313813D01*
D14*
X149833333Y-44487142D02*
X149785714Y-44534761D01*
X149642857Y-44582380D01*
X149547619Y-44582380D01*
X149404761Y-44534761D01*
X149309523Y-44439523D01*
X149261904Y-44344285D01*
X149214285Y-44153809D01*
X149214285Y-44010952D01*
X149261904Y-43820476D01*
X149309523Y-43725238D01*
X149404761Y-43630000D01*
X149547619Y-43582380D01*
X149642857Y-43582380D01*
X149785714Y-43630000D01*
X149833333Y-43677619D01*
X150690476Y-43915714D02*
X150690476Y-44582380D01*
X150452380Y-43534761D02*
X150214285Y-44249047D01*
X150833333Y-44249047D01*
X148928571Y-52322380D02*
X148357142Y-52322380D01*
X148642857Y-52322380D02*
X148642857Y-51322380D01*
X148547619Y-51465238D01*
X148452380Y-51560476D01*
X148357142Y-51608095D01*
X149547619Y-51322380D02*
X149642857Y-51322380D01*
X149738095Y-51370000D01*
X149785714Y-51417619D01*
X149833333Y-51512857D01*
X149880952Y-51703333D01*
X149880952Y-51941428D01*
X149833333Y-52131904D01*
X149785714Y-52227142D01*
X149738095Y-52274761D01*
X149642857Y-52322380D01*
X149547619Y-52322380D01*
X149452380Y-52274761D01*
X149404761Y-52227142D01*
X149357142Y-52131904D01*
X149309523Y-51941428D01*
X149309523Y-51703333D01*
X149357142Y-51512857D01*
X149404761Y-51417619D01*
X149452380Y-51370000D01*
X149547619Y-51322380D01*
X150738095Y-51655714D02*
X150738095Y-52322380D01*
X150309523Y-51655714D02*
X150309523Y-52179523D01*
X150357142Y-52274761D01*
X150452380Y-52322380D01*
X150595238Y-52322380D01*
X150690476Y-52274761D01*
X150738095Y-52227142D01*
X151547619Y-51798571D02*
X151214285Y-51798571D01*
X151214285Y-52322380D02*
X151214285Y-51322380D01*
X151690476Y-51322380D01*
X160333333Y-41727142D02*
X160285714Y-41774761D01*
X160142857Y-41822380D01*
X160047619Y-41822380D01*
X159904761Y-41774761D01*
X159809523Y-41679523D01*
X159761904Y-41584285D01*
X159714285Y-41393809D01*
X159714285Y-41250952D01*
X159761904Y-41060476D01*
X159809523Y-40965238D01*
X159904761Y-40870000D01*
X160047619Y-40822380D01*
X160142857Y-40822380D01*
X160285714Y-40870000D01*
X160333333Y-40917619D01*
X160666666Y-40822380D02*
X161285714Y-40822380D01*
X160952380Y-41203333D01*
X161095238Y-41203333D01*
X161190476Y-41250952D01*
X161238095Y-41298571D01*
X161285714Y-41393809D01*
X161285714Y-41631904D01*
X161238095Y-41727142D01*
X161190476Y-41774761D01*
X161095238Y-41822380D01*
X160809523Y-41822380D01*
X160714285Y-41774761D01*
X160666666Y-41727142D01*
X159428571Y-34082380D02*
X158857142Y-34082380D01*
X159142857Y-34082380D02*
X159142857Y-33082380D01*
X159047619Y-33225238D01*
X158952380Y-33320476D01*
X158857142Y-33368095D01*
X160047619Y-33082380D02*
X160142857Y-33082380D01*
X160238095Y-33130000D01*
X160285714Y-33177619D01*
X160333333Y-33272857D01*
X160380952Y-33463333D01*
X160380952Y-33701428D01*
X160333333Y-33891904D01*
X160285714Y-33987142D01*
X160238095Y-34034761D01*
X160142857Y-34082380D01*
X160047619Y-34082380D01*
X159952380Y-34034761D01*
X159904761Y-33987142D01*
X159857142Y-33891904D01*
X159809523Y-33701428D01*
X159809523Y-33463333D01*
X159857142Y-33272857D01*
X159904761Y-33177619D01*
X159952380Y-33130000D01*
X160047619Y-33082380D01*
X161238095Y-33415714D02*
X161238095Y-34082380D01*
X160809523Y-33415714D02*
X160809523Y-33939523D01*
X160857142Y-34034761D01*
X160952380Y-34082380D01*
X161095238Y-34082380D01*
X161190476Y-34034761D01*
X161238095Y-33987142D01*
X162047619Y-33558571D02*
X161714285Y-33558571D01*
X161714285Y-34082380D02*
X161714285Y-33082380D01*
X162190476Y-33082380D01*
X146857142Y-43166666D02*
X146904761Y-43214285D01*
X146952380Y-43357142D01*
X146952380Y-43452380D01*
X146904761Y-43595238D01*
X146809523Y-43690476D01*
X146714285Y-43738095D01*
X146523809Y-43785714D01*
X146380952Y-43785714D01*
X146190476Y-43738095D01*
X146095238Y-43690476D01*
X146000000Y-43595238D01*
X145952380Y-43452380D01*
X145952380Y-43357142D01*
X146000000Y-43214285D01*
X146047619Y-43166666D01*
X146047619Y-42785714D02*
X146000000Y-42738095D01*
X145952380Y-42642857D01*
X145952380Y-42404761D01*
X146000000Y-42309523D01*
X146047619Y-42261904D01*
X146142857Y-42214285D01*
X146238095Y-42214285D01*
X146380952Y-42261904D01*
X146952380Y-42833333D01*
X146952380Y-42214285D01*
X145952380Y-36142857D02*
X145952380Y-36047619D01*
X146000000Y-35952380D01*
X146047619Y-35904761D01*
X146142857Y-35857142D01*
X146333333Y-35809523D01*
X146571428Y-35809523D01*
X146761904Y-35857142D01*
X146857142Y-35904761D01*
X146904761Y-35952380D01*
X146952380Y-36047619D01*
X146952380Y-36142857D01*
X146904761Y-36238095D01*
X146857142Y-36285714D01*
X146761904Y-36333333D01*
X146571428Y-36380952D01*
X146333333Y-36380952D01*
X146142857Y-36333333D01*
X146047619Y-36285714D01*
X146000000Y-36238095D01*
X145952380Y-36142857D01*
X146857142Y-35380952D02*
X146904761Y-35333333D01*
X146952380Y-35380952D01*
X146904761Y-35428571D01*
X146857142Y-35380952D01*
X146952380Y-35380952D01*
X146952380Y-34380952D02*
X146952380Y-34952380D01*
X146952380Y-34666666D02*
X145952380Y-34666666D01*
X146095238Y-34761904D01*
X146190476Y-34857142D01*
X146238095Y-34952380D01*
X146285714Y-33523809D02*
X146952380Y-33523809D01*
X146285714Y-33952380D02*
X146809523Y-33952380D01*
X146904761Y-33904761D01*
X146952380Y-33809523D01*
X146952380Y-33666666D01*
X146904761Y-33571428D01*
X146857142Y-33523809D01*
X146428571Y-32714285D02*
X146428571Y-33047619D01*
X146952380Y-33047619D02*
X145952380Y-33047619D01*
X145952380Y-32571428D01*
X102083333Y-37047142D02*
X102035714Y-37094761D01*
X101892857Y-37142380D01*
X101797619Y-37142380D01*
X101654761Y-37094761D01*
X101559523Y-36999523D01*
X101511904Y-36904285D01*
X101464285Y-36713809D01*
X101464285Y-36570952D01*
X101511904Y-36380476D01*
X101559523Y-36285238D01*
X101654761Y-36190000D01*
X101797619Y-36142380D01*
X101892857Y-36142380D01*
X102035714Y-36190000D01*
X102083333Y-36237619D01*
X103035714Y-37142380D02*
X102464285Y-37142380D01*
X102750000Y-37142380D02*
X102750000Y-36142380D01*
X102654761Y-36285238D01*
X102559523Y-36380476D01*
X102464285Y-36428095D01*
X100607142Y-40762380D02*
X100702380Y-40762380D01*
X100797619Y-40810000D01*
X100845238Y-40857619D01*
X100892857Y-40952857D01*
X100940476Y-41143333D01*
X100940476Y-41381428D01*
X100892857Y-41571904D01*
X100845238Y-41667142D01*
X100797619Y-41714761D01*
X100702380Y-41762380D01*
X100607142Y-41762380D01*
X100511904Y-41714761D01*
X100464285Y-41667142D01*
X100416666Y-41571904D01*
X100369047Y-41381428D01*
X100369047Y-41143333D01*
X100416666Y-40952857D01*
X100464285Y-40857619D01*
X100511904Y-40810000D01*
X100607142Y-40762380D01*
X101369047Y-41667142D02*
X101416666Y-41714761D01*
X101369047Y-41762380D01*
X101321428Y-41714761D01*
X101369047Y-41667142D01*
X101369047Y-41762380D01*
X102369047Y-41762380D02*
X101797619Y-41762380D01*
X102083333Y-41762380D02*
X102083333Y-40762380D01*
X101988095Y-40905238D01*
X101892857Y-41000476D01*
X101797619Y-41048095D01*
X103226190Y-41095714D02*
X103226190Y-41762380D01*
X102797619Y-41095714D02*
X102797619Y-41619523D01*
X102845238Y-41714761D01*
X102940476Y-41762380D01*
X103083333Y-41762380D01*
X103178571Y-41714761D01*
X103226190Y-41667142D01*
X104035714Y-41238571D02*
X103702380Y-41238571D01*
X103702380Y-41762380D02*
X103702380Y-40762380D01*
X104178571Y-40762380D01*
X98932380Y-24948333D02*
X99646666Y-24948333D01*
X99789523Y-24995952D01*
X99884761Y-25091190D01*
X99932380Y-25234047D01*
X99932380Y-25329285D01*
X99932380Y-23948333D02*
X99932380Y-24519761D01*
X99932380Y-24234047D02*
X98932380Y-24234047D01*
X99075238Y-24329285D01*
X99170476Y-24424523D01*
X99218095Y-24519761D01*
X120666666Y-23952380D02*
X120666666Y-24666666D01*
X120619047Y-24809523D01*
X120523809Y-24904761D01*
X120380952Y-24952380D01*
X120285714Y-24952380D01*
X121095238Y-24047619D02*
X121142857Y-24000000D01*
X121238095Y-23952380D01*
X121476190Y-23952380D01*
X121571428Y-24000000D01*
X121619047Y-24047619D01*
X121666666Y-24142857D01*
X121666666Y-24238095D01*
X121619047Y-24380952D01*
X121047619Y-24952380D01*
X121666666Y-24952380D01*
X123976190Y-31404761D02*
X124119047Y-31452380D01*
X124357142Y-31452380D01*
X124452380Y-31404761D01*
X124500000Y-31357142D01*
X124547619Y-31261904D01*
X124547619Y-31166666D01*
X124500000Y-31071428D01*
X124452380Y-31023809D01*
X124357142Y-30976190D01*
X124166666Y-30928571D01*
X124071428Y-30880952D01*
X124023809Y-30833333D01*
X123976190Y-30738095D01*
X123976190Y-30642857D01*
X124023809Y-30547619D01*
X124071428Y-30500000D01*
X124166666Y-30452380D01*
X124404761Y-30452380D01*
X124547619Y-30500000D01*
X124928571Y-31404761D02*
X125071428Y-31452380D01*
X125309523Y-31452380D01*
X125404761Y-31404761D01*
X125452380Y-31357142D01*
X125500000Y-31261904D01*
X125500000Y-31166666D01*
X125452380Y-31071428D01*
X125404761Y-31023809D01*
X125309523Y-30976190D01*
X125119047Y-30928571D01*
X125023809Y-30880952D01*
X124976190Y-30833333D01*
X124928571Y-30738095D01*
X124928571Y-30642857D01*
X124976190Y-30547619D01*
X125023809Y-30500000D01*
X125119047Y-30452380D01*
X125357142Y-30452380D01*
X125500000Y-30500000D01*
X125928571Y-31452380D02*
X125928571Y-30452380D01*
X126166666Y-30452380D01*
X126309523Y-30500000D01*
X126404761Y-30595238D01*
X126452380Y-30690476D01*
X126500000Y-30880952D01*
X126500000Y-31023809D01*
X126452380Y-31214285D01*
X126404761Y-31309523D01*
X126309523Y-31404761D01*
X126166666Y-31452380D01*
X125928571Y-31452380D01*
X127452380Y-31452380D02*
X126880952Y-31452380D01*
X127166666Y-31452380D02*
X127166666Y-30452380D01*
X127071428Y-30595238D01*
X126976190Y-30690476D01*
X126880952Y-30738095D01*
X127785714Y-30452380D02*
X128404761Y-30452380D01*
X128071428Y-30833333D01*
X128214285Y-30833333D01*
X128309523Y-30880952D01*
X128357142Y-30928571D01*
X128404761Y-31023809D01*
X128404761Y-31261904D01*
X128357142Y-31357142D01*
X128309523Y-31404761D01*
X128214285Y-31452380D01*
X127928571Y-31452380D01*
X127833333Y-31404761D01*
X127785714Y-31357142D01*
X128738095Y-30452380D02*
X129357142Y-30452380D01*
X129023809Y-30833333D01*
X129166666Y-30833333D01*
X129261904Y-30880952D01*
X129309523Y-30928571D01*
X129357142Y-31023809D01*
X129357142Y-31261904D01*
X129309523Y-31357142D01*
X129261904Y-31404761D01*
X129166666Y-31452380D01*
X128880952Y-31452380D01*
X128785714Y-31404761D01*
X128738095Y-31357142D01*
X130309523Y-31452380D02*
X129738095Y-31452380D01*
X130023809Y-31452380D02*
X130023809Y-30452380D01*
X129928571Y-30595238D01*
X129833333Y-30690476D01*
X129738095Y-30738095D01*
X131452380Y-31404761D02*
X131595238Y-31452380D01*
X131833333Y-31452380D01*
X131928571Y-31404761D01*
X131976190Y-31357142D01*
X132023809Y-31261904D01*
X132023809Y-31166666D01*
X131976190Y-31071428D01*
X131928571Y-31023809D01*
X131833333Y-30976190D01*
X131642857Y-30928571D01*
X131547619Y-30880952D01*
X131500000Y-30833333D01*
X131452380Y-30738095D01*
X131452380Y-30642857D01*
X131500000Y-30547619D01*
X131547619Y-30500000D01*
X131642857Y-30452380D01*
X131880952Y-30452380D01*
X132023809Y-30500000D01*
X132452380Y-31452380D02*
X132452380Y-30452380D01*
X132833333Y-30452380D01*
X132928571Y-30500000D01*
X132976190Y-30547619D01*
X133023809Y-30642857D01*
X133023809Y-30785714D01*
X132976190Y-30880952D01*
X132928571Y-30928571D01*
X132833333Y-30976190D01*
X132452380Y-30976190D01*
X133452380Y-31452380D02*
X133452380Y-30452380D01*
X134880952Y-30452380D02*
X135071428Y-30452380D01*
X135166666Y-30500000D01*
X135261904Y-30595238D01*
X135309523Y-30785714D01*
X135309523Y-31119047D01*
X135261904Y-31309523D01*
X135166666Y-31404761D01*
X135071428Y-31452380D01*
X134880952Y-31452380D01*
X134785714Y-31404761D01*
X134690476Y-31309523D01*
X134642857Y-31119047D01*
X134642857Y-30785714D01*
X134690476Y-30595238D01*
X134785714Y-30500000D01*
X134880952Y-30452380D01*
X136214285Y-31452380D02*
X135738095Y-31452380D01*
X135738095Y-30452380D01*
X136547619Y-30928571D02*
X136880952Y-30928571D01*
X137023809Y-31452380D02*
X136547619Y-31452380D01*
X136547619Y-30452380D01*
X137023809Y-30452380D01*
X137452380Y-31452380D02*
X137452380Y-30452380D01*
X137690476Y-30452380D01*
X137833333Y-30500000D01*
X137928571Y-30595238D01*
X137976190Y-30690476D01*
X138023809Y-30880952D01*
X138023809Y-31023809D01*
X137976190Y-31214285D01*
X137928571Y-31309523D01*
X137833333Y-31404761D01*
X137690476Y-31452380D01*
X137452380Y-31452380D01*
X92666666Y-43654761D02*
X92809523Y-43702380D01*
X93047619Y-43702380D01*
X93142857Y-43654761D01*
X93190476Y-43607142D01*
X93238095Y-43511904D01*
X93238095Y-43416666D01*
X93190476Y-43321428D01*
X93142857Y-43273809D01*
X93047619Y-43226190D01*
X92857142Y-43178571D01*
X92761904Y-43130952D01*
X92714285Y-43083333D01*
X92666666Y-42988095D01*
X92666666Y-42892857D01*
X92714285Y-42797619D01*
X92761904Y-42750000D01*
X92857142Y-42702380D01*
X93095238Y-42702380D01*
X93238095Y-42750000D01*
X93571428Y-42702380D02*
X93809523Y-43702380D01*
X94000000Y-42988095D01*
X94190476Y-43702380D01*
X94428571Y-42702380D01*
X95333333Y-43702380D02*
X94761904Y-43702380D01*
X95047619Y-43702380D02*
X95047619Y-42702380D01*
X94952380Y-42845238D01*
X94857142Y-42940476D01*
X94761904Y-42988095D01*
X93714285Y-51402380D02*
X93714285Y-52211904D01*
X93761904Y-52307142D01*
X93809523Y-52354761D01*
X93904761Y-52402380D01*
X94095238Y-52402380D01*
X94190476Y-52354761D01*
X94238095Y-52307142D01*
X94285714Y-52211904D01*
X94285714Y-51402380D01*
X94761904Y-52402380D02*
X94761904Y-51402380D01*
X95142857Y-51402380D01*
X95238095Y-51450000D01*
X95285714Y-51497619D01*
X95333333Y-51592857D01*
X95333333Y-51735714D01*
X95285714Y-51830952D01*
X95238095Y-51878571D01*
X95142857Y-51926190D01*
X94761904Y-51926190D01*
X92666666Y-65654761D02*
X92809523Y-65702380D01*
X93047619Y-65702380D01*
X93142857Y-65654761D01*
X93190476Y-65607142D01*
X93238095Y-65511904D01*
X93238095Y-65416666D01*
X93190476Y-65321428D01*
X93142857Y-65273809D01*
X93047619Y-65226190D01*
X92857142Y-65178571D01*
X92761904Y-65130952D01*
X92714285Y-65083333D01*
X92666666Y-64988095D01*
X92666666Y-64892857D01*
X92714285Y-64797619D01*
X92761904Y-64750000D01*
X92857142Y-64702380D01*
X93095238Y-64702380D01*
X93238095Y-64750000D01*
X93571428Y-64702380D02*
X93809523Y-65702380D01*
X94000000Y-64988095D01*
X94190476Y-65702380D01*
X94428571Y-64702380D01*
X94761904Y-64797619D02*
X94809523Y-64750000D01*
X94904761Y-64702380D01*
X95142857Y-64702380D01*
X95238095Y-64750000D01*
X95285714Y-64797619D01*
X95333333Y-64892857D01*
X95333333Y-64988095D01*
X95285714Y-65130952D01*
X94714285Y-65702380D01*
X95333333Y-65702380D01*
X92619047Y-74402380D02*
X92619047Y-73402380D01*
X92857142Y-73402380D01*
X93000000Y-73450000D01*
X93095238Y-73545238D01*
X93142857Y-73640476D01*
X93190476Y-73830952D01*
X93190476Y-73973809D01*
X93142857Y-74164285D01*
X93095238Y-74259523D01*
X93000000Y-74354761D01*
X92857142Y-74402380D01*
X92619047Y-74402380D01*
X93809523Y-73402380D02*
X94000000Y-73402380D01*
X94095238Y-73450000D01*
X94190476Y-73545238D01*
X94238095Y-73735714D01*
X94238095Y-74069047D01*
X94190476Y-74259523D01*
X94095238Y-74354761D01*
X94000000Y-74402380D01*
X93809523Y-74402380D01*
X93714285Y-74354761D01*
X93619047Y-74259523D01*
X93571428Y-74069047D01*
X93571428Y-73735714D01*
X93619047Y-73545238D01*
X93714285Y-73450000D01*
X93809523Y-73402380D01*
X94571428Y-73402380D02*
X94809523Y-74402380D01*
X95000000Y-73688095D01*
X95190476Y-74402380D01*
X95428571Y-73402380D01*
X95809523Y-74402380D02*
X95809523Y-73402380D01*
X96380952Y-74402380D01*
X96380952Y-73402380D01*
X81416666Y-54654761D02*
X81559523Y-54702380D01*
X81797619Y-54702380D01*
X81892857Y-54654761D01*
X81940476Y-54607142D01*
X81988095Y-54511904D01*
X81988095Y-54416666D01*
X81940476Y-54321428D01*
X81892857Y-54273809D01*
X81797619Y-54226190D01*
X81607142Y-54178571D01*
X81511904Y-54130952D01*
X81464285Y-54083333D01*
X81416666Y-53988095D01*
X81416666Y-53892857D01*
X81464285Y-53797619D01*
X81511904Y-53750000D01*
X81607142Y-53702380D01*
X81845238Y-53702380D01*
X81988095Y-53750000D01*
X82321428Y-53702380D02*
X82559523Y-54702380D01*
X82750000Y-53988095D01*
X82940476Y-54702380D01*
X83178571Y-53702380D01*
X83464285Y-53702380D02*
X84083333Y-53702380D01*
X83750000Y-54083333D01*
X83892857Y-54083333D01*
X83988095Y-54130952D01*
X84035714Y-54178571D01*
X84083333Y-54273809D01*
X84083333Y-54511904D01*
X84035714Y-54607142D01*
X83988095Y-54654761D01*
X83892857Y-54702380D01*
X83607142Y-54702380D01*
X83511904Y-54654761D01*
X83464285Y-54607142D01*
X82297619Y-63402380D02*
X81821428Y-63402380D01*
X81821428Y-62402380D01*
X82630952Y-62878571D02*
X82964285Y-62878571D01*
X83107142Y-63402380D02*
X82630952Y-63402380D01*
X82630952Y-62402380D01*
X83107142Y-62402380D01*
X83869047Y-62878571D02*
X83535714Y-62878571D01*
X83535714Y-63402380D02*
X83535714Y-62402380D01*
X84011904Y-62402380D01*
X84250000Y-62402380D02*
X84821428Y-62402380D01*
X84535714Y-63402380D02*
X84535714Y-62402380D01*
X104416666Y-54654761D02*
X104559523Y-54702380D01*
X104797619Y-54702380D01*
X104892857Y-54654761D01*
X104940476Y-54607142D01*
X104988095Y-54511904D01*
X104988095Y-54416666D01*
X104940476Y-54321428D01*
X104892857Y-54273809D01*
X104797619Y-54226190D01*
X104607142Y-54178571D01*
X104511904Y-54130952D01*
X104464285Y-54083333D01*
X104416666Y-53988095D01*
X104416666Y-53892857D01*
X104464285Y-53797619D01*
X104511904Y-53750000D01*
X104607142Y-53702380D01*
X104845238Y-53702380D01*
X104988095Y-53750000D01*
X105321428Y-53702380D02*
X105559523Y-54702380D01*
X105750000Y-53988095D01*
X105940476Y-54702380D01*
X106178571Y-53702380D01*
X106988095Y-54035714D02*
X106988095Y-54702380D01*
X106750000Y-53654761D02*
X106511904Y-54369047D01*
X107130952Y-54369047D01*
X104916666Y-63402380D02*
X104583333Y-62926190D01*
X104345238Y-63402380D02*
X104345238Y-62402380D01*
X104726190Y-62402380D01*
X104821428Y-62450000D01*
X104869047Y-62497619D01*
X104916666Y-62592857D01*
X104916666Y-62735714D01*
X104869047Y-62830952D01*
X104821428Y-62878571D01*
X104726190Y-62926190D01*
X104345238Y-62926190D01*
X105345238Y-63402380D02*
X105345238Y-62402380D01*
X106345238Y-62450000D02*
X106250000Y-62402380D01*
X106107142Y-62402380D01*
X105964285Y-62450000D01*
X105869047Y-62545238D01*
X105821428Y-62640476D01*
X105773809Y-62830952D01*
X105773809Y-62973809D01*
X105821428Y-63164285D01*
X105869047Y-63259523D01*
X105964285Y-63354761D01*
X106107142Y-63402380D01*
X106202380Y-63402380D01*
X106345238Y-63354761D01*
X106392857Y-63307142D01*
X106392857Y-62973809D01*
X106202380Y-62973809D01*
X106821428Y-63402380D02*
X106821428Y-62402380D01*
X106821428Y-62878571D02*
X107392857Y-62878571D01*
X107392857Y-63402380D02*
X107392857Y-62402380D01*
X107726190Y-62402380D02*
X108297619Y-62402380D01*
X108011904Y-63402380D02*
X108011904Y-62402380D01*
X158416666Y-54904761D02*
X158559523Y-54952380D01*
X158797619Y-54952380D01*
X158892857Y-54904761D01*
X158940476Y-54857142D01*
X158988095Y-54761904D01*
X158988095Y-54666666D01*
X158940476Y-54571428D01*
X158892857Y-54523809D01*
X158797619Y-54476190D01*
X158607142Y-54428571D01*
X158511904Y-54380952D01*
X158464285Y-54333333D01*
X158416666Y-54238095D01*
X158416666Y-54142857D01*
X158464285Y-54047619D01*
X158511904Y-54000000D01*
X158607142Y-53952380D01*
X158845238Y-53952380D01*
X158988095Y-54000000D01*
X159321428Y-53952380D02*
X159559523Y-54952380D01*
X159750000Y-54238095D01*
X159940476Y-54952380D01*
X160178571Y-53952380D01*
X161035714Y-53952380D02*
X160559523Y-53952380D01*
X160511904Y-54428571D01*
X160559523Y-54380952D01*
X160654761Y-54333333D01*
X160892857Y-54333333D01*
X160988095Y-54380952D01*
X161035714Y-54428571D01*
X161083333Y-54523809D01*
X161083333Y-54761904D01*
X161035714Y-54857142D01*
X160988095Y-54904761D01*
X160892857Y-54952380D01*
X160654761Y-54952380D01*
X160559523Y-54904761D01*
X160511904Y-54857142D01*
X172666666Y-54904761D02*
X172809523Y-54952380D01*
X173047619Y-54952380D01*
X173142857Y-54904761D01*
X173190476Y-54857142D01*
X173238095Y-54761904D01*
X173238095Y-54666666D01*
X173190476Y-54571428D01*
X173142857Y-54523809D01*
X173047619Y-54476190D01*
X172857142Y-54428571D01*
X172761904Y-54380952D01*
X172714285Y-54333333D01*
X172666666Y-54238095D01*
X172666666Y-54142857D01*
X172714285Y-54047619D01*
X172761904Y-54000000D01*
X172857142Y-53952380D01*
X173095238Y-53952380D01*
X173238095Y-54000000D01*
X173571428Y-53952380D02*
X173809523Y-54952380D01*
X174000000Y-54238095D01*
X174190476Y-54952380D01*
X174428571Y-53952380D01*
X175238095Y-53952380D02*
X175047619Y-53952380D01*
X174952380Y-54000000D01*
X174904761Y-54047619D01*
X174809523Y-54190476D01*
X174761904Y-54380952D01*
X174761904Y-54761904D01*
X174809523Y-54857142D01*
X174857142Y-54904761D01*
X174952380Y-54952380D01*
X175142857Y-54952380D01*
X175238095Y-54904761D01*
X175285714Y-54857142D01*
X175333333Y-54761904D01*
X175333333Y-54523809D01*
X175285714Y-54428571D01*
X175238095Y-54380952D01*
X175142857Y-54333333D01*
X174952380Y-54333333D01*
X174857142Y-54380952D01*
X174809523Y-54428571D01*
X174761904Y-54523809D01*
X120916666Y-66654761D02*
X121059523Y-66702380D01*
X121297619Y-66702380D01*
X121392857Y-66654761D01*
X121440476Y-66607142D01*
X121488095Y-66511904D01*
X121488095Y-66416666D01*
X121440476Y-66321428D01*
X121392857Y-66273809D01*
X121297619Y-66226190D01*
X121107142Y-66178571D01*
X121011904Y-66130952D01*
X120964285Y-66083333D01*
X120916666Y-65988095D01*
X120916666Y-65892857D01*
X120964285Y-65797619D01*
X121011904Y-65750000D01*
X121107142Y-65702380D01*
X121345238Y-65702380D01*
X121488095Y-65750000D01*
X121821428Y-65702380D02*
X122059523Y-66702380D01*
X122250000Y-65988095D01*
X122440476Y-66702380D01*
X122678571Y-65702380D01*
X122964285Y-65702380D02*
X123630952Y-65702380D01*
X123202380Y-66702380D01*
X120773809Y-75354761D02*
X120916666Y-75402380D01*
X121154761Y-75402380D01*
X121250000Y-75354761D01*
X121297619Y-75307142D01*
X121345238Y-75211904D01*
X121345238Y-75116666D01*
X121297619Y-75021428D01*
X121250000Y-74973809D01*
X121154761Y-74926190D01*
X120964285Y-74878571D01*
X120869047Y-74830952D01*
X120821428Y-74783333D01*
X120773809Y-74688095D01*
X120773809Y-74592857D01*
X120821428Y-74497619D01*
X120869047Y-74450000D01*
X120964285Y-74402380D01*
X121202380Y-74402380D01*
X121345238Y-74450000D01*
X121630952Y-74402380D02*
X122202380Y-74402380D01*
X121916666Y-75402380D02*
X121916666Y-74402380D01*
X122488095Y-75116666D02*
X122964285Y-75116666D01*
X122392857Y-75402380D02*
X122726190Y-74402380D01*
X123059523Y-75402380D01*
X123964285Y-75402380D02*
X123630952Y-74926190D01*
X123392857Y-75402380D02*
X123392857Y-74402380D01*
X123773809Y-74402380D01*
X123869047Y-74450000D01*
X123916666Y-74497619D01*
X123964285Y-74592857D01*
X123964285Y-74735714D01*
X123916666Y-74830952D01*
X123869047Y-74878571D01*
X123773809Y-74926190D01*
X123392857Y-74926190D01*
X124250000Y-74402380D02*
X124821428Y-74402380D01*
X124535714Y-75402380D02*
X124535714Y-74402380D01*
X136416666Y-66654761D02*
X136559523Y-66702380D01*
X136797619Y-66702380D01*
X136892857Y-66654761D01*
X136940476Y-66607142D01*
X136988095Y-66511904D01*
X136988095Y-66416666D01*
X136940476Y-66321428D01*
X136892857Y-66273809D01*
X136797619Y-66226190D01*
X136607142Y-66178571D01*
X136511904Y-66130952D01*
X136464285Y-66083333D01*
X136416666Y-65988095D01*
X136416666Y-65892857D01*
X136464285Y-65797619D01*
X136511904Y-65750000D01*
X136607142Y-65702380D01*
X136845238Y-65702380D01*
X136988095Y-65750000D01*
X137321428Y-65702380D02*
X137559523Y-66702380D01*
X137750000Y-65988095D01*
X137940476Y-66702380D01*
X138178571Y-65702380D01*
X138702380Y-66130952D02*
X138607142Y-66083333D01*
X138559523Y-66035714D01*
X138511904Y-65940476D01*
X138511904Y-65892857D01*
X138559523Y-65797619D01*
X138607142Y-65750000D01*
X138702380Y-65702380D01*
X138892857Y-65702380D01*
X138988095Y-65750000D01*
X139035714Y-65797619D01*
X139083333Y-65892857D01*
X139083333Y-65940476D01*
X139035714Y-66035714D01*
X138988095Y-66083333D01*
X138892857Y-66130952D01*
X138702380Y-66130952D01*
X138607142Y-66178571D01*
X138559523Y-66226190D01*
X138511904Y-66321428D01*
X138511904Y-66511904D01*
X138559523Y-66607142D01*
X138607142Y-66654761D01*
X138702380Y-66702380D01*
X138892857Y-66702380D01*
X138988095Y-66654761D01*
X139035714Y-66607142D01*
X139083333Y-66511904D01*
X139083333Y-66321428D01*
X139035714Y-66226190D01*
X138988095Y-66178571D01*
X138892857Y-66130952D01*
X135773809Y-75354761D02*
X135916666Y-75402380D01*
X136154761Y-75402380D01*
X136250000Y-75354761D01*
X136297619Y-75307142D01*
X136345238Y-75211904D01*
X136345238Y-75116666D01*
X136297619Y-75021428D01*
X136250000Y-74973809D01*
X136154761Y-74926190D01*
X135964285Y-74878571D01*
X135869047Y-74830952D01*
X135821428Y-74783333D01*
X135773809Y-74688095D01*
X135773809Y-74592857D01*
X135821428Y-74497619D01*
X135869047Y-74450000D01*
X135964285Y-74402380D01*
X136202380Y-74402380D01*
X136345238Y-74450000D01*
X136773809Y-74878571D02*
X137107142Y-74878571D01*
X137250000Y-75402380D02*
X136773809Y-75402380D01*
X136773809Y-74402380D01*
X137250000Y-74402380D01*
X138154761Y-75402380D02*
X137678571Y-75402380D01*
X137678571Y-74402380D01*
X138488095Y-74878571D02*
X138821428Y-74878571D01*
X138964285Y-75402380D02*
X138488095Y-75402380D01*
X138488095Y-74402380D01*
X138964285Y-74402380D01*
X139964285Y-75307142D02*
X139916666Y-75354761D01*
X139773809Y-75402380D01*
X139678571Y-75402380D01*
X139535714Y-75354761D01*
X139440476Y-75259523D01*
X139392857Y-75164285D01*
X139345238Y-74973809D01*
X139345238Y-74830952D01*
X139392857Y-74640476D01*
X139440476Y-74545238D01*
X139535714Y-74450000D01*
X139678571Y-74402380D01*
X139773809Y-74402380D01*
X139916666Y-74450000D01*
X139964285Y-74497619D01*
X140250000Y-74402380D02*
X140821428Y-74402380D01*
X140535714Y-75402380D02*
X140535714Y-74402380D01*
X158166666Y-43904761D02*
X158309523Y-43952380D01*
X158547619Y-43952380D01*
X158642857Y-43904761D01*
X158690476Y-43857142D01*
X158738095Y-43761904D01*
X158738095Y-43666666D01*
X158690476Y-43571428D01*
X158642857Y-43523809D01*
X158547619Y-43476190D01*
X158357142Y-43428571D01*
X158261904Y-43380952D01*
X158214285Y-43333333D01*
X158166666Y-43238095D01*
X158166666Y-43142857D01*
X158214285Y-43047619D01*
X158261904Y-43000000D01*
X158357142Y-42952380D01*
X158595238Y-42952380D01*
X158738095Y-43000000D01*
X159071428Y-42952380D02*
X159309523Y-43952380D01*
X159500000Y-43238095D01*
X159690476Y-43952380D01*
X159928571Y-42952380D01*
X160357142Y-43952380D02*
X160547619Y-43952380D01*
X160642857Y-43904761D01*
X160690476Y-43857142D01*
X160785714Y-43714285D01*
X160833333Y-43523809D01*
X160833333Y-43142857D01*
X160785714Y-43047619D01*
X160738095Y-43000000D01*
X160642857Y-42952380D01*
X160452380Y-42952380D01*
X160357142Y-43000000D01*
X160309523Y-43047619D01*
X160261904Y-43142857D01*
X160261904Y-43380952D01*
X160309523Y-43476190D01*
X160357142Y-43523809D01*
X160452380Y-43571428D01*
X160642857Y-43571428D01*
X160738095Y-43523809D01*
X160785714Y-43476190D01*
X160833333Y-43380952D01*
X158547619Y-52652380D02*
X158214285Y-52176190D01*
X157976190Y-52652380D02*
X157976190Y-51652380D01*
X158357142Y-51652380D01*
X158452380Y-51700000D01*
X158500000Y-51747619D01*
X158547619Y-51842857D01*
X158547619Y-51985714D01*
X158500000Y-52080952D01*
X158452380Y-52128571D01*
X158357142Y-52176190D01*
X157976190Y-52176190D01*
X158976190Y-52128571D02*
X159309523Y-52128571D01*
X159452380Y-52652380D02*
X158976190Y-52652380D01*
X158976190Y-51652380D01*
X159452380Y-51652380D01*
X159833333Y-52604761D02*
X159976190Y-52652380D01*
X160214285Y-52652380D01*
X160309523Y-52604761D01*
X160357142Y-52557142D01*
X160404761Y-52461904D01*
X160404761Y-52366666D01*
X160357142Y-52271428D01*
X160309523Y-52223809D01*
X160214285Y-52176190D01*
X160023809Y-52128571D01*
X159928571Y-52080952D01*
X159880952Y-52033333D01*
X159833333Y-51938095D01*
X159833333Y-51842857D01*
X159880952Y-51747619D01*
X159928571Y-51700000D01*
X160023809Y-51652380D01*
X160261904Y-51652380D01*
X160404761Y-51700000D01*
X160833333Y-52128571D02*
X161166666Y-52128571D01*
X161309523Y-52652380D02*
X160833333Y-52652380D01*
X160833333Y-51652380D01*
X161309523Y-51652380D01*
X161595238Y-51652380D02*
X162166666Y-51652380D01*
X161880952Y-52652380D02*
X161880952Y-51652380D01*
X172190476Y-43904761D02*
X172333333Y-43952380D01*
X172571428Y-43952380D01*
X172666666Y-43904761D01*
X172714285Y-43857142D01*
X172761904Y-43761904D01*
X172761904Y-43666666D01*
X172714285Y-43571428D01*
X172666666Y-43523809D01*
X172571428Y-43476190D01*
X172380952Y-43428571D01*
X172285714Y-43380952D01*
X172238095Y-43333333D01*
X172190476Y-43238095D01*
X172190476Y-43142857D01*
X172238095Y-43047619D01*
X172285714Y-43000000D01*
X172380952Y-42952380D01*
X172619047Y-42952380D01*
X172761904Y-43000000D01*
X173095238Y-42952380D02*
X173333333Y-43952380D01*
X173523809Y-43238095D01*
X173714285Y-43952380D01*
X173952380Y-42952380D01*
X174857142Y-43952380D02*
X174285714Y-43952380D01*
X174571428Y-43952380D02*
X174571428Y-42952380D01*
X174476190Y-43095238D01*
X174380952Y-43190476D01*
X174285714Y-43238095D01*
X175476190Y-42952380D02*
X175571428Y-42952380D01*
X175666666Y-43000000D01*
X175714285Y-43047619D01*
X175761904Y-43142857D01*
X175809523Y-43333333D01*
X175809523Y-43571428D01*
X175761904Y-43761904D01*
X175714285Y-43857142D01*
X175666666Y-43904761D01*
X175571428Y-43952380D01*
X175476190Y-43952380D01*
X175380952Y-43904761D01*
X175333333Y-43857142D01*
X175285714Y-43761904D01*
X175238095Y-43571428D01*
X175238095Y-43333333D01*
X175285714Y-43142857D01*
X175333333Y-43047619D01*
X175380952Y-43000000D01*
X175476190Y-42952380D01*
X172666666Y-52652380D02*
X172666666Y-51652380D01*
X173047619Y-51652380D01*
X173142857Y-51700000D01*
X173190476Y-51747619D01*
X173238095Y-51842857D01*
X173238095Y-51985714D01*
X173190476Y-52080952D01*
X173142857Y-52128571D01*
X173047619Y-52176190D01*
X172666666Y-52176190D01*
X174238095Y-52652380D02*
X173904761Y-52176190D01*
X173666666Y-52652380D02*
X173666666Y-51652380D01*
X174047619Y-51652380D01*
X174142857Y-51700000D01*
X174190476Y-51747619D01*
X174238095Y-51842857D01*
X174238095Y-51985714D01*
X174190476Y-52080952D01*
X174142857Y-52128571D01*
X174047619Y-52176190D01*
X173666666Y-52176190D01*
X175190476Y-51700000D02*
X175095238Y-51652380D01*
X174952380Y-51652380D01*
X174809523Y-51700000D01*
X174714285Y-51795238D01*
X174666666Y-51890476D01*
X174619047Y-52080952D01*
X174619047Y-52223809D01*
X174666666Y-52414285D01*
X174714285Y-52509523D01*
X174809523Y-52604761D01*
X174952380Y-52652380D01*
X175047619Y-52652380D01*
X175190476Y-52604761D01*
X175238095Y-52557142D01*
X175238095Y-52223809D01*
X175047619Y-52223809D01*
X175666666Y-52652380D02*
X175666666Y-51652380D01*
X176000000Y-52366666D01*
X176333333Y-51652380D01*
X176333333Y-52652380D01*
X166940476Y-42404761D02*
X167083333Y-42452380D01*
X167321428Y-42452380D01*
X167416666Y-42404761D01*
X167464285Y-42357142D01*
X167511904Y-42261904D01*
X167511904Y-42166666D01*
X167464285Y-42071428D01*
X167416666Y-42023809D01*
X167321428Y-41976190D01*
X167130952Y-41928571D01*
X167035714Y-41880952D01*
X166988095Y-41833333D01*
X166940476Y-41738095D01*
X166940476Y-41642857D01*
X166988095Y-41547619D01*
X167035714Y-41500000D01*
X167130952Y-41452380D01*
X167369047Y-41452380D01*
X167511904Y-41500000D01*
X167845238Y-41452380D02*
X168083333Y-42452380D01*
X168273809Y-41738095D01*
X168464285Y-42452380D01*
X168702380Y-41452380D01*
X169607142Y-42452380D02*
X169035714Y-42452380D01*
X169321428Y-42452380D02*
X169321428Y-41452380D01*
X169226190Y-41595238D01*
X169130952Y-41690476D01*
X169035714Y-41738095D01*
X170559523Y-42452380D02*
X169988095Y-42452380D01*
X170273809Y-42452380D02*
X170273809Y-41452380D01*
X170178571Y-41595238D01*
X170083333Y-41690476D01*
X169988095Y-41738095D01*
X98952380Y-46761904D02*
X99761904Y-46761904D01*
X99857142Y-46714285D01*
X99904761Y-46666666D01*
X99952380Y-46571428D01*
X99952380Y-46380952D01*
X99904761Y-46285714D01*
X99857142Y-46238095D01*
X99761904Y-46190476D01*
X98952380Y-46190476D01*
X99952380Y-45190476D02*
X99952380Y-45761904D01*
X99952380Y-45476190D02*
X98952380Y-45476190D01*
X99095238Y-45571428D01*
X99190476Y-45666666D01*
X99238095Y-45761904D01*
X140798095Y-56712380D02*
X140798095Y-57521904D01*
X140845714Y-57617142D01*
X140893333Y-57664761D01*
X140988571Y-57712380D01*
X141179047Y-57712380D01*
X141274285Y-57664761D01*
X141321904Y-57617142D01*
X141369523Y-57521904D01*
X141369523Y-56712380D01*
X141798095Y-56807619D02*
X141845714Y-56760000D01*
X141940952Y-56712380D01*
X142179047Y-56712380D01*
X142274285Y-56760000D01*
X142321904Y-56807619D01*
X142369523Y-56902857D01*
X142369523Y-56998095D01*
X142321904Y-57140952D01*
X141750476Y-57712380D01*
X142369523Y-57712380D01*
X127845714Y-64928571D02*
X128179047Y-64928571D01*
X128321904Y-65452380D02*
X127845714Y-65452380D01*
X127845714Y-64452380D01*
X128321904Y-64452380D01*
X128702857Y-65404761D02*
X128845714Y-65452380D01*
X129083809Y-65452380D01*
X129179047Y-65404761D01*
X129226666Y-65357142D01*
X129274285Y-65261904D01*
X129274285Y-65166666D01*
X129226666Y-65071428D01*
X129179047Y-65023809D01*
X129083809Y-64976190D01*
X128893333Y-64928571D01*
X128798095Y-64880952D01*
X128750476Y-64833333D01*
X128702857Y-64738095D01*
X128702857Y-64642857D01*
X128750476Y-64547619D01*
X128798095Y-64500000D01*
X128893333Y-64452380D01*
X129131428Y-64452380D01*
X129274285Y-64500000D01*
X129702857Y-65452380D02*
X129702857Y-64452380D01*
X130083809Y-64452380D01*
X130179047Y-64500000D01*
X130226666Y-64547619D01*
X130274285Y-64642857D01*
X130274285Y-64785714D01*
X130226666Y-64880952D01*
X130179047Y-64928571D01*
X130083809Y-64976190D01*
X129702857Y-64976190D01*
X130702857Y-65071428D02*
X131464761Y-65071428D01*
X132464761Y-65452380D02*
X131893333Y-65452380D01*
X132179047Y-65452380D02*
X132179047Y-64452380D01*
X132083809Y-64595238D01*
X131988571Y-64690476D01*
X131893333Y-64738095D01*
X132845714Y-64547619D02*
X132893333Y-64500000D01*
X132988571Y-64452380D01*
X133226666Y-64452380D01*
X133321904Y-64500000D01*
X133369523Y-64547619D01*
X133417142Y-64642857D01*
X133417142Y-64738095D01*
X133369523Y-64880952D01*
X132798095Y-65452380D01*
X133417142Y-65452380D01*
X133845714Y-64928571D02*
X134179047Y-64928571D01*
X134321904Y-65452380D02*
X133845714Y-65452380D01*
X133845714Y-64452380D01*
X134321904Y-64452380D01*
X152238095Y-41952380D02*
X152238095Y-42761904D01*
X152285714Y-42857142D01*
X152333333Y-42904761D01*
X152428571Y-42952380D01*
X152619047Y-42952380D01*
X152714285Y-42904761D01*
X152761904Y-42857142D01*
X152809523Y-42761904D01*
X152809523Y-41952380D01*
X153190476Y-41952380D02*
X153809523Y-41952380D01*
X153476190Y-42333333D01*
X153619047Y-42333333D01*
X153714285Y-42380952D01*
X153761904Y-42428571D01*
X153809523Y-42523809D01*
X153809523Y-42761904D01*
X153761904Y-42857142D01*
X153714285Y-42904761D01*
X153619047Y-42952380D01*
X153333333Y-42952380D01*
X153238095Y-42904761D01*
X153190476Y-42857142D01*
X148785714Y-33666666D02*
X149261904Y-33666666D01*
X148690476Y-33952380D02*
X149023809Y-32952380D01*
X149357142Y-33952380D01*
X149690476Y-33952380D02*
X149690476Y-32952380D01*
X150071428Y-32952380D01*
X150166666Y-33000000D01*
X150214285Y-33047619D01*
X150261904Y-33142857D01*
X150261904Y-33285714D01*
X150214285Y-33380952D01*
X150166666Y-33428571D01*
X150071428Y-33476190D01*
X149690476Y-33476190D01*
X151214285Y-33952380D02*
X150642857Y-33952380D01*
X150928571Y-33952380D02*
X150928571Y-32952380D01*
X150833333Y-33095238D01*
X150738095Y-33190476D01*
X150642857Y-33238095D01*
X152166666Y-33952380D02*
X151595238Y-33952380D01*
X151880952Y-33952380D02*
X151880952Y-32952380D01*
X151785714Y-33095238D01*
X151690476Y-33190476D01*
X151595238Y-33238095D01*
X153119047Y-33952380D02*
X152547619Y-33952380D01*
X152833333Y-33952380D02*
X152833333Y-32952380D01*
X152738095Y-33095238D01*
X152642857Y-33190476D01*
X152547619Y-33238095D01*
X153452380Y-32952380D02*
X154119047Y-32952380D01*
X153690476Y-33952380D01*
X154500000Y-33571428D02*
X155261904Y-33571428D01*
X155642857Y-32952380D02*
X156261904Y-32952380D01*
X155928571Y-33333333D01*
X156071428Y-33333333D01*
X156166666Y-33380952D01*
X156214285Y-33428571D01*
X156261904Y-33523809D01*
X156261904Y-33761904D01*
X156214285Y-33857142D01*
X156166666Y-33904761D01*
X156071428Y-33952380D01*
X155785714Y-33952380D01*
X155690476Y-33904761D01*
X155642857Y-33857142D01*
X156595238Y-32952380D02*
X157214285Y-32952380D01*
X156880952Y-33333333D01*
X157023809Y-33333333D01*
X157119047Y-33380952D01*
X157166666Y-33428571D01*
X157214285Y-33523809D01*
X157214285Y-33761904D01*
X157166666Y-33857142D01*
X157119047Y-33904761D01*
X157023809Y-33952380D01*
X156738095Y-33952380D01*
X156642857Y-33904761D01*
X156595238Y-33857142D01*
X98583333Y-53452380D02*
X98250000Y-52976190D01*
X98011904Y-53452380D02*
X98011904Y-52452380D01*
X98392857Y-52452380D01*
X98488095Y-52500000D01*
X98535714Y-52547619D01*
X98583333Y-52642857D01*
X98583333Y-52785714D01*
X98535714Y-52880952D01*
X98488095Y-52928571D01*
X98392857Y-52976190D01*
X98011904Y-52976190D01*
X99535714Y-53452380D02*
X98964285Y-53452380D01*
X99250000Y-53452380D02*
X99250000Y-52452380D01*
X99154761Y-52595238D01*
X99059523Y-52690476D01*
X98964285Y-52738095D01*
X98404761Y-54952380D02*
X97833333Y-54952380D01*
X98119047Y-54952380D02*
X98119047Y-53952380D01*
X98023809Y-54095238D01*
X97928571Y-54190476D01*
X97833333Y-54238095D01*
X99023809Y-53952380D02*
X99119047Y-53952380D01*
X99214285Y-54000000D01*
X99261904Y-54047619D01*
X99309523Y-54142857D01*
X99357142Y-54333333D01*
X99357142Y-54571428D01*
X99309523Y-54761904D01*
X99261904Y-54857142D01*
X99214285Y-54904761D01*
X99119047Y-54952380D01*
X99023809Y-54952380D01*
X98928571Y-54904761D01*
X98880952Y-54857142D01*
X98833333Y-54761904D01*
X98785714Y-54571428D01*
X98785714Y-54333333D01*
X98833333Y-54142857D01*
X98880952Y-54047619D01*
X98928571Y-54000000D01*
X99023809Y-53952380D01*
X99785714Y-54952380D02*
X99785714Y-53952380D01*
X99880952Y-54571428D02*
X100166666Y-54952380D01*
X100166666Y-54285714D02*
X99785714Y-54666666D01*
X98333333Y-76202380D02*
X98000000Y-75726190D01*
X97761904Y-76202380D02*
X97761904Y-75202380D01*
X98142857Y-75202380D01*
X98238095Y-75250000D01*
X98285714Y-75297619D01*
X98333333Y-75392857D01*
X98333333Y-75535714D01*
X98285714Y-75630952D01*
X98238095Y-75678571D01*
X98142857Y-75726190D01*
X97761904Y-75726190D01*
X98714285Y-75297619D02*
X98761904Y-75250000D01*
X98857142Y-75202380D01*
X99095238Y-75202380D01*
X99190476Y-75250000D01*
X99238095Y-75297619D01*
X99285714Y-75392857D01*
X99285714Y-75488095D01*
X99238095Y-75630952D01*
X98666666Y-76202380D01*
X99285714Y-76202380D01*
X98404761Y-77702380D02*
X97833333Y-77702380D01*
X98119047Y-77702380D02*
X98119047Y-76702380D01*
X98023809Y-76845238D01*
X97928571Y-76940476D01*
X97833333Y-76988095D01*
X99023809Y-76702380D02*
X99119047Y-76702380D01*
X99214285Y-76750000D01*
X99261904Y-76797619D01*
X99309523Y-76892857D01*
X99357142Y-77083333D01*
X99357142Y-77321428D01*
X99309523Y-77511904D01*
X99261904Y-77607142D01*
X99214285Y-77654761D01*
X99119047Y-77702380D01*
X99023809Y-77702380D01*
X98928571Y-77654761D01*
X98880952Y-77607142D01*
X98833333Y-77511904D01*
X98785714Y-77321428D01*
X98785714Y-77083333D01*
X98833333Y-76892857D01*
X98880952Y-76797619D01*
X98928571Y-76750000D01*
X99023809Y-76702380D01*
X99785714Y-77702380D02*
X99785714Y-76702380D01*
X99880952Y-77321428D02*
X100166666Y-77702380D01*
X100166666Y-77035714D02*
X99785714Y-77416666D01*
X77583333Y-64702380D02*
X77250000Y-64226190D01*
X77011904Y-64702380D02*
X77011904Y-63702380D01*
X77392857Y-63702380D01*
X77488095Y-63750000D01*
X77535714Y-63797619D01*
X77583333Y-63892857D01*
X77583333Y-64035714D01*
X77535714Y-64130952D01*
X77488095Y-64178571D01*
X77392857Y-64226190D01*
X77011904Y-64226190D01*
X77916666Y-63702380D02*
X78535714Y-63702380D01*
X78202380Y-64083333D01*
X78345238Y-64083333D01*
X78440476Y-64130952D01*
X78488095Y-64178571D01*
X78535714Y-64273809D01*
X78535714Y-64511904D01*
X78488095Y-64607142D01*
X78440476Y-64654761D01*
X78345238Y-64702380D01*
X78059523Y-64702380D01*
X77964285Y-64654761D01*
X77916666Y-64607142D01*
X77404761Y-65952380D02*
X76833333Y-65952380D01*
X77119047Y-65952380D02*
X77119047Y-64952380D01*
X77023809Y-65095238D01*
X76928571Y-65190476D01*
X76833333Y-65238095D01*
X78023809Y-64952380D02*
X78119047Y-64952380D01*
X78214285Y-65000000D01*
X78261904Y-65047619D01*
X78309523Y-65142857D01*
X78357142Y-65333333D01*
X78357142Y-65571428D01*
X78309523Y-65761904D01*
X78261904Y-65857142D01*
X78214285Y-65904761D01*
X78119047Y-65952380D01*
X78023809Y-65952380D01*
X77928571Y-65904761D01*
X77880952Y-65857142D01*
X77833333Y-65761904D01*
X77785714Y-65571428D01*
X77785714Y-65333333D01*
X77833333Y-65142857D01*
X77880952Y-65047619D01*
X77928571Y-65000000D01*
X78023809Y-64952380D01*
X78785714Y-65952380D02*
X78785714Y-64952380D01*
X78880952Y-65571428D02*
X79166666Y-65952380D01*
X79166666Y-65285714D02*
X78785714Y-65666666D01*
X110083333Y-64452380D02*
X109750000Y-63976190D01*
X109511904Y-64452380D02*
X109511904Y-63452380D01*
X109892857Y-63452380D01*
X109988095Y-63500000D01*
X110035714Y-63547619D01*
X110083333Y-63642857D01*
X110083333Y-63785714D01*
X110035714Y-63880952D01*
X109988095Y-63928571D01*
X109892857Y-63976190D01*
X109511904Y-63976190D01*
X110940476Y-63785714D02*
X110940476Y-64452380D01*
X110702380Y-63404761D02*
X110464285Y-64119047D01*
X111083333Y-64119047D01*
X110154761Y-65952380D02*
X109583333Y-65952380D01*
X109869047Y-65952380D02*
X109869047Y-64952380D01*
X109773809Y-65095238D01*
X109678571Y-65190476D01*
X109583333Y-65238095D01*
X110773809Y-64952380D02*
X110869047Y-64952380D01*
X110964285Y-65000000D01*
X111011904Y-65047619D01*
X111059523Y-65142857D01*
X111107142Y-65333333D01*
X111107142Y-65571428D01*
X111059523Y-65761904D01*
X111011904Y-65857142D01*
X110964285Y-65904761D01*
X110869047Y-65952380D01*
X110773809Y-65952380D01*
X110678571Y-65904761D01*
X110630952Y-65857142D01*
X110583333Y-65761904D01*
X110535714Y-65571428D01*
X110535714Y-65333333D01*
X110583333Y-65142857D01*
X110630952Y-65047619D01*
X110678571Y-65000000D01*
X110773809Y-64952380D01*
X111535714Y-65952380D02*
X111535714Y-64952380D01*
X111630952Y-65571428D02*
X111916666Y-65952380D01*
X111916666Y-65285714D02*
X111535714Y-65666666D01*
X159623333Y-64282380D02*
X159290000Y-63806190D01*
X159051904Y-64282380D02*
X159051904Y-63282380D01*
X159432857Y-63282380D01*
X159528095Y-63330000D01*
X159575714Y-63377619D01*
X159623333Y-63472857D01*
X159623333Y-63615714D01*
X159575714Y-63710952D01*
X159528095Y-63758571D01*
X159432857Y-63806190D01*
X159051904Y-63806190D01*
X160528095Y-63282380D02*
X160051904Y-63282380D01*
X160004285Y-63758571D01*
X160051904Y-63710952D01*
X160147142Y-63663333D01*
X160385238Y-63663333D01*
X160480476Y-63710952D01*
X160528095Y-63758571D01*
X160575714Y-63853809D01*
X160575714Y-64091904D01*
X160528095Y-64187142D01*
X160480476Y-64234761D01*
X160385238Y-64282380D01*
X160147142Y-64282380D01*
X160051904Y-64234761D01*
X160004285Y-64187142D01*
X159194761Y-68122380D02*
X158623333Y-68122380D01*
X158909047Y-68122380D02*
X158909047Y-67122380D01*
X158813809Y-67265238D01*
X158718571Y-67360476D01*
X158623333Y-67408095D01*
X159813809Y-67122380D02*
X159909047Y-67122380D01*
X160004285Y-67170000D01*
X160051904Y-67217619D01*
X160099523Y-67312857D01*
X160147142Y-67503333D01*
X160147142Y-67741428D01*
X160099523Y-67931904D01*
X160051904Y-68027142D01*
X160004285Y-68074761D01*
X159909047Y-68122380D01*
X159813809Y-68122380D01*
X159718571Y-68074761D01*
X159670952Y-68027142D01*
X159623333Y-67931904D01*
X159575714Y-67741428D01*
X159575714Y-67503333D01*
X159623333Y-67312857D01*
X159670952Y-67217619D01*
X159718571Y-67170000D01*
X159813809Y-67122380D01*
X160575714Y-68122380D02*
X160575714Y-67122380D01*
X160670952Y-67741428D02*
X160956666Y-68122380D01*
X160956666Y-67455714D02*
X160575714Y-67836666D01*
X173873333Y-64282380D02*
X173540000Y-63806190D01*
X173301904Y-64282380D02*
X173301904Y-63282380D01*
X173682857Y-63282380D01*
X173778095Y-63330000D01*
X173825714Y-63377619D01*
X173873333Y-63472857D01*
X173873333Y-63615714D01*
X173825714Y-63710952D01*
X173778095Y-63758571D01*
X173682857Y-63806190D01*
X173301904Y-63806190D01*
X174730476Y-63282380D02*
X174540000Y-63282380D01*
X174444761Y-63330000D01*
X174397142Y-63377619D01*
X174301904Y-63520476D01*
X174254285Y-63710952D01*
X174254285Y-64091904D01*
X174301904Y-64187142D01*
X174349523Y-64234761D01*
X174444761Y-64282380D01*
X174635238Y-64282380D01*
X174730476Y-64234761D01*
X174778095Y-64187142D01*
X174825714Y-64091904D01*
X174825714Y-63853809D01*
X174778095Y-63758571D01*
X174730476Y-63710952D01*
X174635238Y-63663333D01*
X174444761Y-63663333D01*
X174349523Y-63710952D01*
X174301904Y-63758571D01*
X174254285Y-63853809D01*
X173444761Y-68122380D02*
X172873333Y-68122380D01*
X173159047Y-68122380D02*
X173159047Y-67122380D01*
X173063809Y-67265238D01*
X172968571Y-67360476D01*
X172873333Y-67408095D01*
X174063809Y-67122380D02*
X174159047Y-67122380D01*
X174254285Y-67170000D01*
X174301904Y-67217619D01*
X174349523Y-67312857D01*
X174397142Y-67503333D01*
X174397142Y-67741428D01*
X174349523Y-67931904D01*
X174301904Y-68027142D01*
X174254285Y-68074761D01*
X174159047Y-68122380D01*
X174063809Y-68122380D01*
X173968571Y-68074761D01*
X173920952Y-68027142D01*
X173873333Y-67931904D01*
X173825714Y-67741428D01*
X173825714Y-67503333D01*
X173873333Y-67312857D01*
X173920952Y-67217619D01*
X173968571Y-67170000D01*
X174063809Y-67122380D01*
X174825714Y-68122380D02*
X174825714Y-67122380D01*
X174920952Y-67741428D02*
X175206666Y-68122380D01*
X175206666Y-67455714D02*
X174825714Y-67836666D01*
X127532380Y-70626666D02*
X127056190Y-70960000D01*
X127532380Y-71198095D02*
X126532380Y-71198095D01*
X126532380Y-70817142D01*
X126580000Y-70721904D01*
X126627619Y-70674285D01*
X126722857Y-70626666D01*
X126865714Y-70626666D01*
X126960952Y-70674285D01*
X127008571Y-70721904D01*
X127056190Y-70817142D01*
X127056190Y-71198095D01*
X126532380Y-70293333D02*
X126532380Y-69626666D01*
X127532380Y-70055238D01*
X131372380Y-71055238D02*
X131372380Y-71626666D01*
X131372380Y-71340952D02*
X130372380Y-71340952D01*
X130515238Y-71436190D01*
X130610476Y-71531428D01*
X130658095Y-71626666D01*
X130372380Y-70436190D02*
X130372380Y-70340952D01*
X130420000Y-70245714D01*
X130467619Y-70198095D01*
X130562857Y-70150476D01*
X130753333Y-70102857D01*
X130991428Y-70102857D01*
X131181904Y-70150476D01*
X131277142Y-70198095D01*
X131324761Y-70245714D01*
X131372380Y-70340952D01*
X131372380Y-70436190D01*
X131324761Y-70531428D01*
X131277142Y-70579047D01*
X131181904Y-70626666D01*
X130991428Y-70674285D01*
X130753333Y-70674285D01*
X130562857Y-70626666D01*
X130467619Y-70579047D01*
X130420000Y-70531428D01*
X130372380Y-70436190D01*
X131372380Y-69674285D02*
X130372380Y-69674285D01*
X130991428Y-69579047D02*
X131372380Y-69293333D01*
X130705714Y-69293333D02*
X131086666Y-69674285D01*
X142782380Y-70626666D02*
X142306190Y-70960000D01*
X142782380Y-71198095D02*
X141782380Y-71198095D01*
X141782380Y-70817142D01*
X141830000Y-70721904D01*
X141877619Y-70674285D01*
X141972857Y-70626666D01*
X142115714Y-70626666D01*
X142210952Y-70674285D01*
X142258571Y-70721904D01*
X142306190Y-70817142D01*
X142306190Y-71198095D01*
X142210952Y-70055238D02*
X142163333Y-70150476D01*
X142115714Y-70198095D01*
X142020476Y-70245714D01*
X141972857Y-70245714D01*
X141877619Y-70198095D01*
X141830000Y-70150476D01*
X141782380Y-70055238D01*
X141782380Y-69864761D01*
X141830000Y-69769523D01*
X141877619Y-69721904D01*
X141972857Y-69674285D01*
X142020476Y-69674285D01*
X142115714Y-69721904D01*
X142163333Y-69769523D01*
X142210952Y-69864761D01*
X142210952Y-70055238D01*
X142258571Y-70150476D01*
X142306190Y-70198095D01*
X142401428Y-70245714D01*
X142591904Y-70245714D01*
X142687142Y-70198095D01*
X142734761Y-70150476D01*
X142782380Y-70055238D01*
X142782380Y-69864761D01*
X142734761Y-69769523D01*
X142687142Y-69721904D01*
X142591904Y-69674285D01*
X142401428Y-69674285D01*
X142306190Y-69721904D01*
X142258571Y-69769523D01*
X142210952Y-69864761D01*
X146622380Y-71055238D02*
X146622380Y-71626666D01*
X146622380Y-71340952D02*
X145622380Y-71340952D01*
X145765238Y-71436190D01*
X145860476Y-71531428D01*
X145908095Y-71626666D01*
X145622380Y-70436190D02*
X145622380Y-70340952D01*
X145670000Y-70245714D01*
X145717619Y-70198095D01*
X145812857Y-70150476D01*
X146003333Y-70102857D01*
X146241428Y-70102857D01*
X146431904Y-70150476D01*
X146527142Y-70198095D01*
X146574761Y-70245714D01*
X146622380Y-70340952D01*
X146622380Y-70436190D01*
X146574761Y-70531428D01*
X146527142Y-70579047D01*
X146431904Y-70626666D01*
X146241428Y-70674285D01*
X146003333Y-70674285D01*
X145812857Y-70626666D01*
X145717619Y-70579047D01*
X145670000Y-70531428D01*
X145622380Y-70436190D01*
X146622380Y-69674285D02*
X145622380Y-69674285D01*
X146241428Y-69579047D02*
X146622380Y-69293333D01*
X145955714Y-69293333D02*
X146336666Y-69674285D01*
X152952380Y-62416666D02*
X152476190Y-62750000D01*
X152952380Y-62988095D02*
X151952380Y-62988095D01*
X151952380Y-62607142D01*
X152000000Y-62511904D01*
X152047619Y-62464285D01*
X152142857Y-62416666D01*
X152285714Y-62416666D01*
X152380952Y-62464285D01*
X152428571Y-62511904D01*
X152476190Y-62607142D01*
X152476190Y-62988095D01*
X152952380Y-61940476D02*
X152952380Y-61750000D01*
X152904761Y-61654761D01*
X152857142Y-61607142D01*
X152714285Y-61511904D01*
X152523809Y-61464285D01*
X152142857Y-61464285D01*
X152047619Y-61511904D01*
X152000000Y-61559523D01*
X151952380Y-61654761D01*
X151952380Y-61845238D01*
X152000000Y-61940476D01*
X152047619Y-61988095D01*
X152142857Y-62035714D01*
X152380952Y-62035714D01*
X152476190Y-61988095D01*
X152523809Y-61940476D01*
X152571428Y-61845238D01*
X152571428Y-61654761D01*
X152523809Y-61559523D01*
X152476190Y-61511904D01*
X152380952Y-61464285D01*
X154452380Y-62845238D02*
X154452380Y-63416666D01*
X154452380Y-63130952D02*
X153452380Y-63130952D01*
X153595238Y-63226190D01*
X153690476Y-63321428D01*
X153738095Y-63416666D01*
X153452380Y-62226190D02*
X153452380Y-62130952D01*
X153500000Y-62035714D01*
X153547619Y-61988095D01*
X153642857Y-61940476D01*
X153833333Y-61892857D01*
X154071428Y-61892857D01*
X154261904Y-61940476D01*
X154357142Y-61988095D01*
X154404761Y-62035714D01*
X154452380Y-62130952D01*
X154452380Y-62226190D01*
X154404761Y-62321428D01*
X154357142Y-62369047D01*
X154261904Y-62416666D01*
X154071428Y-62464285D01*
X153833333Y-62464285D01*
X153642857Y-62416666D01*
X153547619Y-62369047D01*
X153500000Y-62321428D01*
X153452380Y-62226190D01*
X154452380Y-61464285D02*
X153452380Y-61464285D01*
X154071428Y-61369047D02*
X154452380Y-61083333D01*
X153785714Y-61083333D02*
X154166666Y-61464285D01*
X168872380Y-48682857D02*
X168396190Y-49016190D01*
X168872380Y-49254285D02*
X167872380Y-49254285D01*
X167872380Y-48873333D01*
X167920000Y-48778095D01*
X167967619Y-48730476D01*
X168062857Y-48682857D01*
X168205714Y-48682857D01*
X168300952Y-48730476D01*
X168348571Y-48778095D01*
X168396190Y-48873333D01*
X168396190Y-49254285D01*
X168872380Y-47730476D02*
X168872380Y-48301904D01*
X168872380Y-48016190D02*
X167872380Y-48016190D01*
X168015238Y-48111428D01*
X168110476Y-48206666D01*
X168158095Y-48301904D01*
X167872380Y-47111428D02*
X167872380Y-47016190D01*
X167920000Y-46920952D01*
X167967619Y-46873333D01*
X168062857Y-46825714D01*
X168253333Y-46778095D01*
X168491428Y-46778095D01*
X168681904Y-46825714D01*
X168777142Y-46873333D01*
X168824761Y-46920952D01*
X168872380Y-47016190D01*
X168872380Y-47111428D01*
X168824761Y-47206666D01*
X168777142Y-47254285D01*
X168681904Y-47301904D01*
X168491428Y-47349523D01*
X168253333Y-47349523D01*
X168062857Y-47301904D01*
X167967619Y-47254285D01*
X167920000Y-47206666D01*
X167872380Y-47111428D01*
X165032380Y-48635238D02*
X165032380Y-49206666D01*
X165032380Y-48920952D02*
X164032380Y-48920952D01*
X164175238Y-49016190D01*
X164270476Y-49111428D01*
X164318095Y-49206666D01*
X164032380Y-48016190D02*
X164032380Y-47920952D01*
X164080000Y-47825714D01*
X164127619Y-47778095D01*
X164222857Y-47730476D01*
X164413333Y-47682857D01*
X164651428Y-47682857D01*
X164841904Y-47730476D01*
X164937142Y-47778095D01*
X164984761Y-47825714D01*
X165032380Y-47920952D01*
X165032380Y-48016190D01*
X164984761Y-48111428D01*
X164937142Y-48159047D01*
X164841904Y-48206666D01*
X164651428Y-48254285D01*
X164413333Y-48254285D01*
X164222857Y-48206666D01*
X164127619Y-48159047D01*
X164080000Y-48111428D01*
X164032380Y-48016190D01*
X165032380Y-47254285D02*
X164032380Y-47254285D01*
X164651428Y-47159047D02*
X165032380Y-46873333D01*
X164365714Y-46873333D02*
X164746666Y-47254285D01*
X119202380Y-46392857D02*
X118726190Y-46726190D01*
X119202380Y-46964285D02*
X118202380Y-46964285D01*
X118202380Y-46583333D01*
X118250000Y-46488095D01*
X118297619Y-46440476D01*
X118392857Y-46392857D01*
X118535714Y-46392857D01*
X118630952Y-46440476D01*
X118678571Y-46488095D01*
X118726190Y-46583333D01*
X118726190Y-46964285D01*
X119202380Y-45440476D02*
X119202380Y-46011904D01*
X119202380Y-45726190D02*
X118202380Y-45726190D01*
X118345238Y-45821428D01*
X118440476Y-45916666D01*
X118488095Y-46011904D01*
X118297619Y-45059523D02*
X118250000Y-45011904D01*
X118202380Y-44916666D01*
X118202380Y-44678571D01*
X118250000Y-44583333D01*
X118297619Y-44535714D01*
X118392857Y-44488095D01*
X118488095Y-44488095D01*
X118630952Y-44535714D01*
X119202380Y-45107142D01*
X119202380Y-44488095D01*
X120702380Y-46345238D02*
X120702380Y-46916666D01*
X120702380Y-46630952D02*
X119702380Y-46630952D01*
X119845238Y-46726190D01*
X119940476Y-46821428D01*
X119988095Y-46916666D01*
X119702380Y-45726190D02*
X119702380Y-45630952D01*
X119750000Y-45535714D01*
X119797619Y-45488095D01*
X119892857Y-45440476D01*
X120083333Y-45392857D01*
X120321428Y-45392857D01*
X120511904Y-45440476D01*
X120607142Y-45488095D01*
X120654761Y-45535714D01*
X120702380Y-45630952D01*
X120702380Y-45726190D01*
X120654761Y-45821428D01*
X120607142Y-45869047D01*
X120511904Y-45916666D01*
X120321428Y-45964285D01*
X120083333Y-45964285D01*
X119892857Y-45916666D01*
X119797619Y-45869047D01*
X119750000Y-45821428D01*
X119702380Y-45726190D01*
X120702380Y-44964285D02*
X119702380Y-44964285D01*
X120321428Y-44869047D02*
X120702380Y-44583333D01*
X120035714Y-44583333D02*
X120416666Y-44964285D01*
X112452380Y-40892857D02*
X111976190Y-41226190D01*
X112452380Y-41464285D02*
X111452380Y-41464285D01*
X111452380Y-41083333D01*
X111500000Y-40988095D01*
X111547619Y-40940476D01*
X111642857Y-40892857D01*
X111785714Y-40892857D01*
X111880952Y-40940476D01*
X111928571Y-40988095D01*
X111976190Y-41083333D01*
X111976190Y-41464285D01*
X112452380Y-39940476D02*
X112452380Y-40511904D01*
X112452380Y-40226190D02*
X111452380Y-40226190D01*
X111595238Y-40321428D01*
X111690476Y-40416666D01*
X111738095Y-40511904D01*
X111452380Y-39607142D02*
X111452380Y-38988095D01*
X111833333Y-39321428D01*
X111833333Y-39178571D01*
X111880952Y-39083333D01*
X111928571Y-39035714D01*
X112023809Y-38988095D01*
X112261904Y-38988095D01*
X112357142Y-39035714D01*
X112404761Y-39083333D01*
X112452380Y-39178571D01*
X112452380Y-39464285D01*
X112404761Y-39559523D01*
X112357142Y-39607142D01*
X113952380Y-40845238D02*
X113952380Y-41416666D01*
X113952380Y-41130952D02*
X112952380Y-41130952D01*
X113095238Y-41226190D01*
X113190476Y-41321428D01*
X113238095Y-41416666D01*
X112952380Y-40226190D02*
X112952380Y-40130952D01*
X113000000Y-40035714D01*
X113047619Y-39988095D01*
X113142857Y-39940476D01*
X113333333Y-39892857D01*
X113571428Y-39892857D01*
X113761904Y-39940476D01*
X113857142Y-39988095D01*
X113904761Y-40035714D01*
X113952380Y-40130952D01*
X113952380Y-40226190D01*
X113904761Y-40321428D01*
X113857142Y-40369047D01*
X113761904Y-40416666D01*
X113571428Y-40464285D01*
X113333333Y-40464285D01*
X113142857Y-40416666D01*
X113047619Y-40369047D01*
X113000000Y-40321428D01*
X112952380Y-40226190D01*
X113952380Y-39464285D02*
X112952380Y-39464285D01*
X113571428Y-39369047D02*
X113952380Y-39083333D01*
X113285714Y-39083333D02*
X113666666Y-39464285D01*
X175964285Y-41968571D02*
X176107142Y-42016190D01*
X176154761Y-42063809D01*
X176202380Y-42159047D01*
X176202380Y-42301904D01*
X176154761Y-42397142D01*
X176107142Y-42444761D01*
X176011904Y-42492380D01*
X175630952Y-42492380D01*
X175630952Y-41492380D01*
X175964285Y-41492380D01*
X176059523Y-41540000D01*
X176107142Y-41587619D01*
X176154761Y-41682857D01*
X176154761Y-41778095D01*
X176107142Y-41873333D01*
X176059523Y-41920952D01*
X175964285Y-41968571D01*
X175630952Y-41968571D01*
X176488095Y-41492380D02*
X177059523Y-41492380D01*
X176773809Y-42492380D02*
X176773809Y-41492380D01*
X177916666Y-42492380D02*
X177345238Y-42492380D01*
X177630952Y-42492380D02*
X177630952Y-41492380D01*
X177535714Y-41635238D01*
X177440476Y-41730476D01*
X177345238Y-41778095D01*
X113357142Y-54282380D02*
X112880952Y-54282380D01*
X112880952Y-53282380D01*
X113642857Y-54234761D02*
X113785714Y-54282380D01*
X114023809Y-54282380D01*
X114119047Y-54234761D01*
X114166666Y-54187142D01*
X114214285Y-54091904D01*
X114214285Y-53996666D01*
X114166666Y-53901428D01*
X114119047Y-53853809D01*
X114023809Y-53806190D01*
X113833333Y-53758571D01*
X113738095Y-53710952D01*
X113690476Y-53663333D01*
X113642857Y-53568095D01*
X113642857Y-53472857D01*
X113690476Y-53377619D01*
X113738095Y-53330000D01*
X113833333Y-53282380D01*
X114071428Y-53282380D01*
X114214285Y-53330000D01*
X115166666Y-54282380D02*
X114595238Y-54282380D01*
X114880952Y-54282380D02*
X114880952Y-53282380D01*
X114785714Y-53425238D01*
X114690476Y-53520476D01*
X114595238Y-53568095D01*
M02*
